<svg width="1229" height="1229" viewBox="0 0 1229 1229" fill="none" xmlns="http://www.w3.org/2000/svg">
<g filter="url(#filter0_d_549_11)">
<path d="M635.704 722.103L635.641 722.126L635.582 722.157L625.986 727.143L625.941 727.166L625.898 727.194L618.176 732.265C615.55 733.989 613.089 735.953 610.824 738.13L606.607 742.184C604.415 744.292 602.415 746.591 600.632 749.056L598.503 751.999L598.494 752.011L598.485 752.024L595.215 756.855L595.195 756.885L595.177 756.916L595.093 757.061L595.959 757.561L595.093 757.061C594.706 757.732 593.977 758.13 593.203 758.094L589.467 757.918L587.203 757.811C586.123 757.76 585.042 757.879 583.999 758.162C583.157 758.391 582.285 758.486 581.413 758.445L565.406 757.691C562.794 757.568 560.196 757.237 557.638 756.699L555.998 756.355L555.973 756.349L555.947 756.345L553.786 756.009C549.583 755.356 545.314 755.242 541.082 755.67L539.64 755.816C536.706 756.113 533.746 756.05 530.827 755.628C527.738 755.181 524.72 754.337 521.848 753.115L487.107 738.339C484.532 737.244 482.056 735.931 479.706 734.413L474.225 730.874L474.211 730.865L474.197 730.857L466.028 725.954L456.128 719.192L450.784 714.448L450.748 714.416L450.709 714.388L445.085 710.293L440.394 706.246L430.988 698.131L424.803 691.552L417.778 683.137L410.873 672.025L403.191 657.243L399.248 646.986C399.161 646.761 399.123 646.52 399.134 646.28C399.185 645.198 400.202 644.425 401.258 644.666L417.47 648.361C418.808 648.666 420.177 648.814 421.548 648.802L431.775 648.712L456.097 648.5L484.092 649.818L503.679 650.74L519.487 652.389L535.301 654.039L552.874 656.67L567.53 660.956L578.449 665.513L588.421 670.933L597.931 676.795L606.491 682.6L614.541 689.278L621.68 695.927L630.135 704.449L636.19 711.322C636.536 711.714 636.838 712.141 637.092 712.598L638.39 714.932C639.897 717.639 638.618 721.052 635.704 722.103Z" fill="url(#paint0_linear_549_11)" stroke="white" stroke-width="2"/>
<path d="M276.782 687.5L276.832 687.466L276.877 687.427L286.396 679.167L286.416 679.15L286.435 679.132L296.876 669.066L304.428 662.695L320.545 651.719L333.804 644.4L347.532 638.703C351.602 637.014 355.881 635.882 360.254 635.337L368.799 634.272L381.166 633.298L391.844 633.241C393.829 633.231 395.709 634.131 396.944 635.685C397.306 636.14 397.605 636.642 397.832 637.178L398.753 636.786L397.832 637.178L401.31 645.347L401.32 645.372L401.332 645.396L405.375 653.638C406.568 656.071 407.954 658.406 409.519 660.619L416.85 670.989L428.412 687.345L428.44 687.384L428.471 687.421L437.609 698.032C439.895 700.688 442.449 703.1 445.231 705.232L456.493 713.864L456.508 713.876L456.524 713.887L475.722 727.466L475.772 727.501L475.826 727.53L502.679 741.981L502.738 742.013L502.802 742.036L519.262 748.216C524.327 750.117 529.668 751.182 535.075 751.368L555.765 752.079C556.312 752.098 556.825 752.351 557.173 752.773C557.844 753.586 557.729 754.79 556.915 755.461L540.73 768.818C539.637 769.72 538.462 770.519 537.221 771.204L522.97 779.07C520.476 780.447 517.866 781.603 515.171 782.527L503.077 786.67L503.073 786.671L476.391 795.919L457.397 800.556L432.665 803.411L415.507 803.502L399.074 803.59C396.693 803.603 394.315 803.442 391.958 803.109L370.728 800.109L350.631 795.621C348.152 795.068 345.719 794.322 343.356 793.391L317.313 783.136L291.383 770.17C288.312 768.634 285.411 766.78 282.727 764.638L261.898 748.01L247.275 734.938C244.92 732.833 242.774 730.505 240.868 727.987L235.016 720.26C234.522 719.607 234.147 718.873 233.908 718.091C233.095 715.428 233.948 712.536 236.076 710.74L238.832 708.415C239.354 707.975 239.911 707.578 240.498 707.23L251.88 700.468L262.618 695.919C265.647 694.636 268.545 693.063 271.272 691.222L276.782 687.5Z" fill="url(#paint1_linear_549_11)" stroke="white" stroke-width="2"/>
<path d="M1037.43 654.617L1038.43 654.651L1037.43 654.617C1037.52 651.711 1035.92 649.015 1033.32 647.713L1030.16 646.13C1029.52 645.808 1028.85 645.54 1028.16 645.329L1015.43 641.422L1003.92 639.57C1000.61 639.037 997.366 638.18 994.225 637.01L987.962 634.677L987.905 634.656L987.851 634.627L976.493 628.739L976.47 628.727L976.447 628.713L963.727 621.246L954.764 616.756L936.314 609.801L921.581 605.795L906.986 603.558C902.498 602.87 897.936 602.809 893.431 603.377L885.088 604.429L872.866 606.557L862.623 609.153C860.642 609.655 859.01 611.055 858.212 612.936C857.986 613.467 857.832 614.027 857.753 614.599L856.502 623.698L856.498 623.724L856.494 623.75L854.685 633.205C854.184 635.822 853.48 638.395 852.577 640.901L848.117 653.289L841.169 672.585L841.153 672.629L841.133 672.672L834.998 685.693C833.503 688.866 831.685 691.877 829.572 694.676L820.872 706.206L820.86 706.222L820.848 706.237L805.789 724.666L805.75 724.714L805.705 724.757L783.462 745.98L783.412 746.028L783.356 746.068L769.051 756.376C764.625 759.565 759.694 761.989 754.466 763.545L734.761 769.411C734.195 769.579 733.732 769.987 733.491 770.526C733.047 771.521 733.472 772.689 734.452 773.167L753.525 782.461C754.876 783.119 756.286 783.649 757.736 784.044L773.4 788.303C776.214 789.068 779.09 789.58 781.994 789.834L794.69 790.943L794.694 790.943L822.92 793.514L842.507 793.392L867.184 790.046L883.814 785.831L899.62 781.825C902.008 781.22 904.347 780.435 906.617 779.478L926.273 771.191L944.467 761.698C946.784 760.489 949 759.097 951.095 757.535L973.568 740.774L995.276 721.294C997.867 718.969 1000.2 716.375 1002.24 713.555L1018.09 691.66L1028.91 674.806C1030.61 672.158 1032.05 669.353 1033.21 666.428L1036.9 657.116C1037.22 656.319 1037.4 655.474 1037.43 654.617Z" fill="url(#paint2_linear_549_11)" stroke="white" stroke-width="2"/>
<path d="M727.004 708.145L727.028 708.145L727.051 708.144L748 707.045C752.052 706.833 756.063 706.138 759.95 704.975L778.668 699.374C782.218 698.311 785.642 696.865 788.879 695.061L805.121 686.008L818.062 679.741C818.695 679.435 819.27 679.023 819.764 678.524L819.085 677.852L819.764 678.524L823.231 675.02C825.473 672.753 829.243 675.055 828.251 678.085L828.229 678.15L828.217 678.218L827.025 684.775L824.236 695.038C823.409 698.083 822.29 701.041 820.894 703.871L817.706 710.332L817.706 710.332L812.373 721.136L812.373 721.136L807.071 731.883L796.43 748.029L785.392 763.177C783.951 765.155 782.363 767.023 780.642 768.764L774.525 774.952C771.007 778.511 766.965 781.511 762.539 783.846L754.043 788.328C751.163 789.848 748.139 791.076 745.015 791.996L724.552 798.019L705.878 801.665L705.854 801.67L705.83 801.675L704.515 802C700.496 802.992 696.367 803.47 692.227 803.424L688.351 803.38L674.456 802.264L660.572 799.228L649.315 796.18C646.955 795.541 644.646 794.726 642.407 793.743L630.074 788.323L617.165 781.459L611.54 777.484C608 774.983 604.807 772.023 602.046 768.682L599.865 766.044L595.296 759.587C594.714 758.766 594.207 757.895 593.779 756.984C591.01 751.085 591.85 744.122 595.942 739.05L606.161 726.383C613.677 717.066 624.733 711.298 636.674 710.464L665.15 708.475L698.065 708.3L727.004 708.145Z" fill="url(#paint3_linear_549_11)" stroke="white" stroke-width="2"/>
<path d="M565.465 662.71L565.429 662.698L565.391 662.689L546.213 658.003C544.541 657.594 542.825 657.392 541.104 657.401L540.417 657.405C535.804 657.43 531.37 655.621 528.091 652.377C524.812 649.132 522.956 644.718 522.932 640.106L522.915 636.95L522.8 615.402L522.747 605.397C522.725 601.39 523.195 597.396 524.146 593.505L527.948 577.945L531.153 568.155C532.509 564.016 534.41 560.076 536.806 556.44L543.809 545.813L543.844 545.761L543.871 545.705L545.611 542.179C547.941 537.455 551.017 533.139 554.722 529.395L565.085 518.921L574.042 510.124L574.053 510.113L574.065 510.102L581.17 502.663C583.682 500.13 587.804 500.215 590.209 502.851L591.151 503.882L591.889 503.208L591.151 503.882C591.559 504.329 591.912 504.824 592.202 505.355L593.511 507.75C594.27 509.139 595.131 510.471 596.086 511.734L596.884 511.131L596.086 511.734L598.591 515.046C600.351 517.373 601.899 519.852 603.218 522.455L606.64 529.209L612.084 539.954L617.528 550.699L619.53 554.648C621.859 559.246 624.914 563.437 628.577 567.061L635.889 574.296C638.183 576.565 640.247 579.056 642.051 581.731L647.375 589.625C649.252 592.409 651.401 595.001 653.788 597.364L661.1 604.598L668.412 611.832C670.706 614.102 672.77 616.592 674.574 619.267L678.922 625.715C681.357 629.325 683.3 633.245 684.699 637.369L685.414 639.477C687.106 644.464 687.983 649.692 688.011 654.958L688.039 660.278C688.067 665.545 687.246 670.782 685.608 675.787L682.831 684.265L677.917 699.274C677.675 700.015 677.378 700.741 677.033 701.44C674.279 707.024 668.595 710.593 662.372 710.626L651.598 710.684L640.824 710.741C637.64 710.758 634.58 709.509 632.317 707.27L625.315 700.342L618.003 693.108C615.616 690.746 613.001 688.625 610.196 686.777L598.112 678.814L587.485 671.811C583.7 669.316 579.599 667.338 575.291 665.927L565.465 662.71Z" fill="url(#paint4_linear_549_11)" stroke="white" stroke-width="2"/>
<path d="M849.304 586.387L849.285 586.447L849.273 586.508L844.034 613.448L838.784 634.935L830.893 654.97C829.129 659.45 826.714 663.645 823.727 667.421L817.393 675.425C810.735 683.839 801.5 689.835 791.105 692.492L764.45 699.307L734.899 704.843L702.223 709.862C699.847 710.227 697.448 710.417 695.045 710.429L678.528 710.518C674.115 710.541 672.135 704.994 675.567 702.218L688.903 691.432C689.565 690.896 690.172 690.295 690.714 689.638L710.725 665.363C714.77 660.456 717.861 654.836 719.84 648.792L731.701 612.566C732.423 610.363 733.3 608.213 734.325 606.134L743.412 587.715L758.856 556.413C762.628 548.766 768.332 542.235 775.401 537.467L804.502 517.842C809.809 514.263 815.765 511.759 822.034 510.47L834.402 507.928C837.562 507.278 840.779 506.943 844.006 506.925L860.603 506.837L876.764 506.751C880.835 506.729 883.432 511.089 881.474 514.658L861.363 551.317C860.413 553.049 859.626 554.865 859.011 556.741L849.304 586.387Z" fill="url(#paint5_linear_549_11)" stroke="white" stroke-width="2"/>
<path d="M694.448 508.431L694.464 508.479L694.474 508.529L697.698 523.337C697.946 524.475 698.012 525.645 697.892 526.803L695.915 546.012L694.184 562.821C693.947 565.125 694.607 567.432 696.028 569.262L698.203 572.065L698.887 572.945C699.515 573.755 700.028 574.649 700.409 575.601L704.448 585.687C704.675 586.254 704.855 586.839 704.985 587.436L705.698 590.713L706.144 592.759C706.151 592.794 706.164 592.813 706.176 592.825C706.19 592.84 706.212 592.854 706.239 592.862C706.267 592.87 706.293 592.869 706.313 592.865C706.329 592.861 706.35 592.852 706.375 592.826L715.136 583.982L715.153 583.964L723.554 575.055L723.589 575.018L723.628 574.985L741.805 559.28L741.825 559.263L741.845 559.247L764.666 541.532L786.803 524.348C787.212 524.03 787.594 523.678 787.942 523.294L805.599 503.88C806.483 502.908 807.144 501.753 807.535 500.498L812.107 485.798L819.932 460.638L824.669 431.555L826.333 398.423L827.956 366.096C827.982 365.581 827.964 365.064 827.901 364.552L823.73 330.454L823.725 330.412L823.724 330.371L823.012 311.787L822.555 299.848C822.539 299.436 822.594 299.025 822.716 298.632C823.189 297.112 821.423 295.888 820.165 296.864L815.356 300.597L803.945 309.455L798.24 313.883L786.83 322.741L769.714 336.027L746.894 353.742L730.462 366.497C730.052 366.815 729.671 367.167 729.322 367.551L710.207 388.569L687.909 418.607L672.034 443.101C671.587 443.79 671.237 444.538 670.992 445.323L667.72 455.846C666.846 458.655 667.4 461.713 669.204 464.037L672.185 467.877L681.454 479.818L686.568 486.406C687.344 487.405 687.941 488.53 688.334 489.732L694.448 508.431Z" fill="#E4508C" stroke="white" stroke-width="2"/>
<path d="M894.119 413.069L894.181 413.076L894.243 413.076L944.799 412.788L959.243 412.706L972.778 412.629C973.625 412.624 974.437 412.283 975.033 411.68C975.92 410.782 977.413 411.693 977.02 412.893L972.813 425.758L965.715 447.465L965.703 447.502L965.694 447.539L958.64 476.453L944.988 525.284C944.671 526.416 944.251 527.515 943.732 528.569L930.301 555.817L916.029 577.49L894.543 606.48L894.527 606.503L894.512 606.526L880.206 628.251L859.566 656.099C859.031 656.822 858.445 657.505 857.813 658.144L846.732 669.352C845.296 670.804 843.635 672.016 841.814 672.939L830.305 678.776L827.315 680.293C824.684 681.627 821.779 682.33 818.829 682.347L815.276 682.367L810.76 682.393C809.789 682.398 809.227 681.294 809.802 680.511C809.836 680.465 809.873 680.422 809.914 680.381L821.883 668.275C823.469 666.67 824.787 664.82 825.785 662.795L831.49 651.221L837.973 638.069C838.432 637.137 838.822 636.172 839.139 635.182L845.782 614.41L845.792 614.378L845.8 614.346L852.861 585.897L852.862 585.893L859.54 558.52C859.78 557.535 860.098 556.572 860.492 555.638L865.194 544.492L874.105 528.235L874.116 528.216L874.125 528.197L880.655 514.949C881.125 513.996 881.366 512.947 881.36 511.884C881.339 508.105 878.258 505.059 874.479 505.08L873.099 505.088L858.655 505.17L844.21 505.252L839.45 505.28C837.733 505.289 836.024 505.51 834.361 505.935L823.713 508.662C822.74 508.911 821.787 509.229 820.86 509.615L802.222 517.364C801.068 517.843 799.959 518.425 798.908 519.102L787.865 526.218C786.577 527.048 785.384 528.016 784.307 529.106L771.488 542.071L759.408 554.29C757.821 555.895 756.503 557.745 755.505 559.77L742.66 585.83L735.714 599.921C735.633 600.086 735.526 600.236 735.397 600.367C734.179 601.598 732.114 600.444 732.524 598.762L737.265 579.328L744.323 550.398L750.861 523.601C751.189 522.254 751.664 520.947 752.277 519.704L764.56 494.784C765.208 493.47 766.006 492.235 766.937 491.104L830.24 414.256C834.355 409.261 840.729 406.704 847.155 407.47L894.119 413.069Z" fill="url(#paint6_linear_549_11)" stroke="white" stroke-width="2"/>
<path d="M744.972 536.882L744.948 536.946L744.932 537.012L738.072 565.989L738.063 566.028L738.057 566.068L731.385 609.449L724.543 638.351L718.855 656.158C718.071 658.61 716.798 660.877 715.112 662.822L698.829 681.604L691.718 688.895L684.587 696.208L678.44 702.511C677.995 702.967 677.387 703.228 676.75 703.236L671.089 703.307C671.073 703.307 671.065 703.305 671.063 703.304C671.06 703.303 671.059 703.303 671.057 703.301C671.053 703.298 671.043 703.289 671.036 703.272C671.032 703.264 671.03 703.257 671.029 703.251C671.028 703.244 671.029 703.239 671.029 703.236C671.029 703.234 671.03 703.232 671.031 703.23C671.032 703.228 671.036 703.22 671.047 703.209L670.331 702.511L671.047 703.209L672.83 701.381L672.958 701.25C675.329 698.818 677.075 695.849 678.046 692.595L678.934 689.619L678.943 689.591L683.559 675.647L687.345 667.831C689.53 663.319 690.03 658.175 688.753 653.327L683.936 635.035C683.323 632.708 682.314 630.503 680.954 628.517L669.315 611.525C668.534 610.384 667.642 609.323 666.652 608.357L646.172 588.385L631.537 570.555L621.319 558.104C618.581 554.769 617.061 550.602 617.007 546.288L616.913 538.86L616.481 504.406C616.468 503.359 616.542 502.314 616.701 501.279L622.799 461.631C623.006 460.282 623.359 458.959 623.85 457.685L637.063 423.412L650.477 388.617C650.842 387.672 651.281 386.757 651.792 385.882L672.175 350.924L700.538 310.878L714.733 290.837L721.83 280.817C723.505 278.451 727.229 279.611 727.265 282.509L727.285 284.118C727.291 284.569 727.352 285.018 727.467 285.454L734.899 313.674L742.655 356.863L750.506 407.296L750.509 407.314L758.444 464.918L758.848 497.113C758.878 499.53 758.447 501.931 757.577 504.186L744.972 536.882Z" fill="#E4508C" stroke="white" stroke-width="2"/>
<path d="M625.709 452.604L625.698 452.641L625.689 452.678L619.011 481.698L618.996 481.764L618.99 481.831L615.99 514.393L614.646 528.978C614.533 530.213 614.628 531.459 614.93 532.662L617.444 542.693L618.908 548.534L619.641 551.455C619.716 551.755 619.402 552.003 619.128 551.861L619.067 551.829L618.607 552.717L619.067 551.829L618.865 551.724C617.374 550.953 616.13 549.78 615.271 548.339L611.577 542.141L607.414 532.35L607.398 532.313L607.379 532.277L600.64 519.408C600.091 518.361 599.377 517.409 598.526 516.589L592.767 511.042C592.56 510.843 592.387 510.612 592.254 510.358L588.035 502.302C586.798 499.941 583.223 500.857 583.273 503.521C583.276 503.686 583.202 503.843 583.071 503.944L570.228 513.959C569.647 514.412 569.113 514.922 568.635 515.482L555.152 531.236L555.14 531.251L555.127 531.266L541.584 548.419C541.168 548.946 540.802 549.51 540.488 550.103L541.347 550.556L540.488 550.103L534.368 561.707C534.056 562.299 533.798 562.918 533.598 563.557L527.057 584.483L527.046 584.52L527.037 584.557L523.698 599.067L522.029 606.322L521.194 609.95C521.12 610.272 520.683 610.326 520.532 610.031L520.398 609.769L520.392 609.757L515.475 600.447C514.929 599.413 514.221 598.473 513.379 597.661L507.891 592.376C507.464 591.965 507.079 591.513 506.741 591.026L493.163 571.465C492.741 570.857 492.395 570.199 492.134 569.506L491.198 569.859L492.134 569.506L485.235 551.2C485.075 550.776 484.948 550.34 484.853 549.896L477.284 514.247C477.165 513.688 477.1 513.119 477.089 512.547L476.58 485.445C476.571 484.95 476.602 484.454 476.675 483.964L482.958 441.336L489.498 405.111L496.029 368.931L502.825 347.192L509.631 325.418L519.724 298.184C519.986 297.48 519.695 296.718 519.093 296.347L523.045 282.57C523.182 282.093 523.358 281.627 523.572 281.179L525.769 276.569C527.638 272.65 532.797 271.713 535.925 274.725L543.282 281.81L557.995 295.981L572.709 310.152L594.267 330.915C594.574 331.21 594.859 331.527 595.121 331.863L616.873 359.758L630.943 380.026C631.399 380.683 631.765 381.398 632.032 382.152L638.671 400.888C638.994 401.8 639.168 402.758 639.187 403.725L639.261 407.701C639.28 408.668 639.142 409.632 638.853 410.555L632.523 430.805L625.709 452.604Z" fill="url(#paint7_linear_549_11)" stroke="white" stroke-width="2"/>
<path d="M483.91 548.068L483.92 548.105L483.933 548.142L490.884 568.487C491.2 569.412 491.638 570.291 492.186 571.1L506.042 591.55L518.95 610.602C519.947 612.073 520.485 613.806 520.499 615.582L520.557 623.388L520.577 626.009C520.582 626.733 520.659 627.455 520.807 628.164L524.351 645.223L524.364 645.284L524.384 645.343L526.23 650.746L527.153 653.448C527.321 653.938 526.9 654.428 526.39 654.337L514.751 652.245L503.334 649.783C502.815 649.672 502.289 649.597 501.759 649.562L478.481 647.985L478.444 647.982L478.406 647.982L449.518 648.199L421.86 648.406C421.124 648.411 420.391 648.326 419.675 648.153L394.621 642.089C393.036 641.705 391.585 640.898 390.423 639.753L377.843 627.36L356.521 606.355C356.218 606.056 355.936 605.736 355.678 605.397L334.257 577.277L312.347 541.373L290.791 506.047C290.563 505.674 290.363 505.285 290.192 504.883L272.097 462.356L272.084 462.325L272.068 462.294L261.073 440.709L254.035 426.892C253.792 426.416 253.475 425.983 253.095 425.609C251.214 423.755 252.512 420.553 255.153 420.533L260.027 420.496L274.471 420.388L281.693 420.334L296.138 420.226L317.804 420.064L346.693 419.847L367.128 419.694C367.864 419.689 368.598 419.774 369.313 419.947L396.993 426.647L433.11 440.781L460.612 454.276C461.481 454.702 462.275 455.265 462.964 455.944L473.409 466.235C475.11 467.91 476.075 470.192 476.093 472.579L476.17 482.881L476.332 504.547L476.431 517.76C476.438 518.66 476.555 519.555 476.78 520.426L477.748 520.176L476.78 520.426L483.91 548.068Z" fill="url(#paint8_linear_549_11)" stroke="white" stroke-width="2"/>
</g>
<defs>
<filter id="filter0_d_549_11" x="226.605" y="269.943" width="813.825" height="540.647" filterUnits="userSpaceOnUse" color-interpolation-filters="sRGB">
<feFlood flood-opacity="0" result="BackgroundImageFix"/>
<feColorMatrix in="SourceAlpha" type="matrix" values="0 0 0 0 0 0 0 0 0 0 0 0 0 0 0 0 0 0 127 0" result="hardAlpha"/>
<feOffset dx="-2" dy="2"/>
<feGaussianBlur stdDeviation="2"/>
<feComposite in2="hardAlpha" operator="out"/>
<feColorMatrix type="matrix" values="0 0 0 0 0.85098 0 0 0 0 0.85098 0 0 0 0 0.85098 0 0 0 0.56 0"/>
<feBlend mode="normal" in2="BackgroundImageFix" result="effect1_dropShadow_549_11"/>
<feBlend mode="normal" in="SourceGraphic" in2="effect1_dropShadow_549_11" result="shape"/>
</filter>
<linearGradient id="paint0_linear_549_11" x1="607.591" y1="726.903" x2="374.056" y2="656.299" gradientUnits="userSpaceOnUse">
<stop stop-color="#D12874"/>
<stop offset="0.422817" stop-color="#E4508C"/>
</linearGradient>
<linearGradient id="paint1_linear_549_11" x1="256.636" y1="724.091" x2="548.398" y2="766.341" gradientUnits="userSpaceOnUse">
<stop offset="0.386357" stop-color="#E4508C"/>
<stop offset="0.485321" stop-color="#E14A88"/>
<stop offset="0.766588" stop-color="#D12874"/>
</linearGradient>
<linearGradient id="paint2_linear_549_11" x1="1016.98" y1="666.326" x2="744.375" y2="779.133" gradientUnits="userSpaceOnUse">
<stop offset="0.386357" stop-color="#E4508C"/>
<stop offset="0.485321" stop-color="#E14A88"/>
<stop offset="0.766588" stop-color="#D12874"/>
</linearGradient>
<linearGradient id="paint3_linear_549_11" x1="610.709" y1="755.072" x2="824.81" y2="729.206" gradientUnits="userSpaceOnUse">
<stop stop-color="#D12874"/>
<stop offset="0.667624" stop-color="#E4508C"/>
</linearGradient>
<linearGradient id="paint4_linear_549_11" x1="591.064" y1="597.277" x2="605.815" y2="711.928" gradientUnits="userSpaceOnUse">
<stop offset="0.245724" stop-color="#E4508C"/>
<stop offset="1" stop-color="#D12874"/>
</linearGradient>
<linearGradient id="paint5_linear_549_11" x1="854.265" y1="519.944" x2="578.48" y2="741.102" gradientUnits="userSpaceOnUse">
<stop offset="0.32699" stop-color="#E4508C"/>
<stop offset="0.842611" stop-color="#D12874"/>
</linearGradient>
<linearGradient id="paint6_linear_549_11" x1="963.53" y1="418.001" x2="750.053" y2="627.887" gradientUnits="userSpaceOnUse">
<stop offset="0.438443" stop-color="#E4508C"/>
<stop offset="0.672832" stop-color="#D12874"/>
</linearGradient>
<linearGradient id="paint7_linear_549_11" x1="536.639" y1="263.572" x2="561.049" y2="613.055" gradientUnits="userSpaceOnUse">
<stop offset="0.512488" stop-color="#E4508C"/>
<stop offset="0.826235" stop-color="#D12874"/>
</linearGradient>
<linearGradient id="paint8_linear_549_11" x1="265.69" y1="429.419" x2="599.431" y2="692.754" gradientUnits="userSpaceOnUse">
<stop offset="0.407054" stop-color="#E4508C"/>
<stop offset="0.698496" stop-color="#D12874"/>
</linearGradient>
</defs>
</svg>
