<svg width="122" height="116" viewBox="0 0 122 116" fill="none" xmlns="http://www.w3.org/2000/svg">
<g filter="url(#filter0_d_1894_38)">
<path d="M57.2981 70.6053L57.2849 70.6036L57.2716 70.6035L55.9353 70.6007L55.9251 70.6007L55.915 70.6017L55.1446 70.6787C54.5105 70.7421 53.8837 70.864 53.272 71.0427C52.6798 71.2158 52.1043 71.4415 51.5524 71.7171L51.4689 71.7587L51.4689 71.7587L51.4634 71.7616L50.8289 72.1037L50.8226 72.1071L50.8165 72.1109L50.799 72.122C50.7424 72.158 50.6704 72.1593 50.6124 72.1255L50.2133 71.8925L49.9714 71.7513C49.8492 71.6799 49.7165 71.6281 49.5783 71.5978C49.4808 71.5763 49.3873 71.5398 49.3011 71.4895L47.7697 70.5955C47.3753 70.3652 46.9999 70.1038 46.6471 69.8136L46.6473 69.8134L46.6388 69.8071L46.4213 69.6467C45.9932 69.3308 45.5265 69.0709 45.0325 68.8733L44.8662 68.8068C44.5336 68.6738 44.2185 68.5005 43.928 68.291C43.6206 68.0692 43.3432 67.8086 43.1027 67.5156L40.6545 64.5329C40.0976 63.8544 39.5998 63.1294 39.1666 62.3659L39.1667 62.3659L39.1632 62.3603L38.5502 61.3579L37.8561 60.0572L37.5439 59.2365L37.5405 59.2274L37.5362 59.2188L37.1559 58.4514L36.8748 57.7427L36.3103 56.3195L36.011 55.2511L35.7245 53.935L35.6047 52.3312L35.609 50.2799L35.7634 48.9352C35.7656 48.9162 35.7717 48.8978 35.7814 48.8812C35.8248 48.8067 35.925 48.7897 35.9907 48.8456L37.555 50.1778C37.6886 50.2916 37.835 50.3894 37.9912 50.4693L39.1164 51.0445L41.7905 52.4117L44.7793 54.1565L46.87 55.377L48.5052 56.4607L50.1415 57.5452L51.91 58.8346L53.2632 60.136L54.1932 61.2534L54.9719 62.4126L55.6762 63.5955L56.2792 64.7163L56.7765 65.9027L57.1767 67.0359L57.6142 68.4494L57.8836 69.5463C57.8977 69.6036 57.9056 69.6623 57.9071 69.7214L57.9159 70.0513C57.9247 70.3869 57.6307 70.6506 57.2981 70.6053Z" fill="url(#paint0_linear_1894_38)" stroke="white" stroke-width="0.4"/>
<path d="M19.7045 45.7547L19.7165 45.7534L19.7283 45.7506L21.2434 45.3905L21.2434 45.3908L21.2535 45.3878L22.9705 44.8834L24.1557 44.6191L26.5414 44.3398L28.4045 44.297L29.1671 44.3643C30.4064 44.4736 31.6253 44.7494 32.7909 45.1842L34.1969 45.7833L35.3672 46.3866C35.5643 46.4883 35.7039 46.6748 35.7459 46.8926C35.7582 46.9564 35.7618 47.0216 35.7567 47.0864L35.6702 48.1801L35.6699 48.18L35.6696 48.1908C35.6419 49.2844 35.7014 50.3785 35.8476 51.4627L35.9057 51.8938L36.2364 54.3467L36.2376 54.3561L36.2398 54.3654C36.6014 55.9127 37.1311 57.4393 37.8012 58.8796L37.8011 58.8797L37.8046 58.8865L39.1304 61.4721L39.136 61.4829L39.1429 61.493L41.2572 64.612L41.2648 64.6231L41.2738 64.6332L42.723 66.2516C43.1746 66.7558 43.7051 67.1832 44.2939 67.517L46.5193 68.7786C46.5591 68.8012 46.5873 68.8397 46.5967 68.8844C46.615 68.9706 46.5599 69.0553 46.4737 69.0735L43.9369 69.6105C43.7701 69.6458 43.6005 69.6655 43.4301 69.6695L42.2476 69.6966C41.3489 69.7173 40.4502 69.6596 39.5615 69.5241L38.819 69.4108L38.8183 69.4107L35.3704 68.8977L33.0329 68.3208L30.1692 67.2219L28.2885 66.2522C26.8287 65.4996 25.4257 64.6416 24.0907 63.685L23.5901 63.3264C22.0588 62.0333 20.6302 60.6232 19.3173 59.1089L18.7239 58.4244L18.5587 58.1958C17.0306 56.0813 15.7289 53.8122 14.6749 51.4257L13.856 49.25C13.6976 48.8291 13.5802 48.3938 13.5056 47.9503L13.3229 46.8647C13.3076 46.7739 13.3084 46.6811 13.3253 46.5906C13.383 46.2824 13.6189 46.0383 13.9249 45.97L14.3597 45.873L14.3162 45.6778L14.3597 45.873C14.4379 45.8556 14.5175 45.8446 14.5975 45.8402L16.2257 45.751L16.838 45.8005C17.7927 45.8778 18.7527 45.8624 19.7045 45.7547Z" fill="url(#paint1_linear_1894_38)" stroke="white" stroke-width="0.4"/>
<path d="M100.811 81.3055L100.802 81.2965L100.795 81.2865L99.8884 79.9918L99.8882 79.9919L99.8826 79.983L98.918 78.4396L98.197 77.4404L96.5793 75.6288L95.2007 74.3526L94.5735 73.892C93.5711 73.1558 92.4713 72.5623 91.3057 72.1284L89.8498 71.6638L88.5823 71.3628C88.3599 71.31 88.1255 71.3642 87.9489 71.5094C87.899 71.5505 87.8548 71.5979 87.8173 71.6506L87.1597 72.5756L87.16 72.5757L87.1535 72.584C86.4545 73.4655 85.6876 74.2909 84.8598 75.0526L84.5379 75.3488L82.6731 77.0646L82.6661 77.0711L82.6586 77.0768C81.3671 78.0569 79.9723 78.9038 78.5077 79.5987L78.5077 79.5988L78.5006 79.6019L75.7969 80.7588L75.7855 80.7636L75.7736 80.7671L72.1233 81.8191L72.11 81.8229L72.0964 81.8249L69.94 82.1355C69.2643 82.2328 68.577 82.2159 67.9069 82.0856L65.4132 81.6008C65.3635 81.5912 65.3121 81.6037 65.2724 81.6351C65.1991 81.6932 65.185 81.7988 65.2406 81.8741L66.7978 83.9831C66.9052 84.1287 67.0261 84.2638 67.1589 84.3867L68.0184 85.1823C68.6869 85.8012 69.4093 86.3592 70.1771 86.8497L70.8008 87.2481L70.8014 87.2485L73.7427 89.1429L75.8872 90.2461L78.7727 91.2882L80.831 91.777C82.4285 92.1563 84.0523 92.4146 85.6886 92.5497L86.3044 92.6005C88.3116 92.601 90.3158 92.441 92.2976 92.1223L93.2057 91.9763L93.455 91.9126C96.0181 91.2581 98.5043 90.3326 100.871 89.1517L102.911 87.9865C103.316 87.7556 103.697 87.4862 104.05 87.1822L104.894 86.4541C104.968 86.3907 105.03 86.3151 105.078 86.2305C105.24 85.9438 105.22 85.5889 105.027 85.3218L104.772 84.9677L104.934 84.8506L104.772 84.9677C104.722 84.899 104.667 84.8346 104.607 84.7751L103.44 83.6229L102.952 83.2586C102.176 82.6795 101.459 82.0253 100.811 81.3055Z" fill="url(#paint2_linear_1894_38)" stroke="white" stroke-width="0.4"/>
<path d="M68.0481 74.4407L68.048 74.4409L68.0566 74.4448L69.266 74.998C70.4899 75.5577 71.7762 75.9695 73.0977 76.2244C74.3046 76.4573 75.5334 76.5579 76.7622 76.5246L77.9051 76.4935L79.6789 76.5475C79.7743 76.5504 79.8695 76.537 79.9604 76.508L80.5406 76.3225C80.8391 76.2271 81.0627 76.5991 80.8384 76.8179L80.8286 76.8274L80.8202 76.8382L80.3165 77.4856L80.0308 77.7944C79.3672 78.5116 78.6358 79.1629 77.847 79.7395L76.6448 80.6176L76.6448 80.6176L75.4531 81.4885L73.3698 82.6451L71.6114 83.5156C71.1337 83.7521 70.6379 83.9528 70.1302 84.1153C69.0943 84.4471 68.0117 84.6187 66.924 84.6232C66.2162 84.6261 65.5098 84.5585 64.8155 84.4212L62.6914 84.0015L60.4409 83.3335L60.441 83.3333L60.4314 83.331C59.8328 83.1848 59.255 82.9634 58.712 82.6719L58.4398 82.5258L56.9885 81.6129L55.6469 80.4905C54.7229 79.6367 53.8641 78.7151 53.0776 77.7333L52.9414 77.5633L51.9246 76.0794L51.7334 75.707C51.3634 74.9862 51.0903 74.2197 50.9213 73.4274L50.7906 72.4617C50.7745 72.343 50.769 72.2231 50.7741 72.1034C50.807 71.328 51.2795 70.6394 51.9911 70.3296L53.835 69.5269C55.1717 68.945 56.6904 68.9458 58.0265 69.5291L61.2568 70.9393L64.8697 72.802L68.0481 74.4407Z" fill="url(#paint3_linear_1894_38)" stroke="white" stroke-width="0.4"/>
<path d="M53.0452 60.1002L53.0398 60.0947L53.0341 60.0896L51.2016 58.4792C51.0372 58.3346 50.8556 58.2108 50.661 58.1105L50.5856 58.0716C50.097 57.8197 49.7285 57.384 49.5611 56.8604C49.3937 56.3368 49.4412 55.7681 49.6931 55.2795L49.8718 54.933L51.092 52.5664C51.6923 51.4021 52.4331 50.3158 53.2978 49.3318L53.7862 48.776C54.7722 47.8152 55.8816 46.9897 57.0853 46.3215L57.3433 46.1783L57.3542 46.1723L57.3643 46.1649C58.1429 45.5959 59.0081 45.1561 59.9266 44.8625L61.1975 44.4563L62.6814 44.0055L62.6814 44.0056L62.6874 44.0035L63.8905 43.5955C64.2687 43.4756 64.6706 43.6964 64.7721 44.0802L64.8162 44.2469C64.8337 44.3134 64.8433 44.3817 64.8446 44.4503L65.0379 44.4467L64.8446 44.4503L64.8509 44.7875C64.8546 44.9869 64.8731 45.1857 64.906 45.3824L64.9599 45.7037C65.0394 46.1777 65.0764 46.6577 65.0704 47.1383L65.0611 47.8865L65.0427 49.3748L65.0243 50.8631L65.0175 51.4102C65.0095 52.0551 65.1056 52.6971 65.302 53.3115L65.5098 53.9618C65.7488 54.7095 65.9133 55.4789 66.001 56.2588C66.0917 57.065 66.2617 57.8602 66.5087 58.6329L66.7166 59.2833L66.9792 60.1048C67.1817 60.7386 67.3212 61.3908 67.3956 62.0519L67.4434 62.4773C67.512 63.0874 67.4989 63.7038 67.4046 64.3104C67.2905 65.044 67.059 65.7543 66.7188 66.4141L66.6372 66.5724C66.243 67.337 65.7281 68.0331 65.1123 68.6338L64.5585 69.174L63.1616 70.5368C63.0952 70.6015 63.024 70.6617 62.9491 70.7164C62.3513 71.1534 61.5556 71.2165 60.898 70.8775L59.7147 70.2675L58.5314 69.6574C58.1997 69.4864 57.9496 69.1906 57.836 68.8352L57.4654 67.6759C57.0802 66.4706 56.5769 65.3064 55.9628 64.2002L55.7117 63.7479L55.5685 63.4899C54.8818 62.2529 54.0332 61.1129 53.0452 60.1002Z" fill="url(#paint4_linear_1894_38)" stroke="white" stroke-width="0.4"/>
<path d="M88.3908 67.9794L88.3818 67.9881L88.3741 67.9978L86.2602 70.6473L84.4605 72.6951L82.7448 74.1826C82.1082 74.7345 81.3938 75.1895 80.6245 75.5331C78.9101 76.2988 76.9918 76.4806 75.1641 76.0506L72.7104 75.4734L69.1608 74.3902L67.2274 73.7302C65.664 73.1966 64.142 72.5486 62.6737 71.7916C62.2531 71.5748 62.3404 70.9494 62.8042 70.856L64.8819 70.4376C64.9901 70.4158 65.0958 70.3832 65.1975 70.3402L65.1196 70.156L65.1975 70.3402L66.7326 69.6911C68.8168 68.8099 70.7177 67.5466 72.3374 65.9665L73.197 65.128C74.0136 64.3313 74.8858 63.5936 75.807 62.9204L76.8155 62.1833L78.2909 61.105C80.4459 59.5301 82.9747 58.5447 85.6272 58.2465L86.4339 58.1558C87.8921 57.9918 89.3683 58.1151 90.7791 58.5187C91.4904 58.7222 92.1798 58.9954 92.8373 59.3344L94.1976 60.0357L95.9725 60.9508C96.3679 61.1546 96.3988 61.7082 96.0286 61.9548L91.7288 64.8193C91.5217 64.9572 91.328 65.114 91.1499 65.2877L88.3908 67.9794Z" fill="url(#paint5_linear_1894_38)" stroke="white" stroke-width="0.4"/>
<path d="M76.0212 50.6495L76.0195 50.6595L76.0168 50.6694L75.8923 51.1245C75.6074 52.1662 75.1589 53.156 74.5635 54.057L74.0203 54.879L73.1108 56.2553C72.8087 56.7124 72.6945 57.2685 72.7919 57.8077C72.8319 58.0293 72.8408 58.2554 72.8182 58.4794L72.739 59.2658C72.7033 59.6195 72.6382 59.9697 72.5444 60.3126L72.5051 60.4566L73.8668 60.0222L75.2971 59.5269L75.3068 59.5235L75.3168 59.5212L78.206 58.841L78.2059 58.8408L78.2162 58.8389L81.7291 58.2042L84.3902 57.7235C84.9457 57.6231 85.4914 57.475 86.0213 57.2807L86.5675 57.0804C87.886 56.5971 89.0825 55.8307 90.073 54.8353L92.3656 52.5311L94.5424 49.6245L96.6179 46.0946L98.2624 43.2979C98.5472 42.8135 98.7898 42.3056 98.9876 41.7797L100.216 38.5133L100.219 38.5055L100.222 38.4979L101.207 36.4218L101.84 35.0881C101.866 35.0343 101.9 34.9852 101.942 34.943C102.028 34.8566 101.952 34.7109 101.832 34.7325L101.092 34.8663L99.3352 35.1836L98.457 35.3423L96.7006 35.6596L94.0659 36.1356L90.5531 36.7703L88.7702 37.0924C88.2147 37.1927 87.669 37.3409 87.139 37.5352L84.5589 38.4811L80.4039 40.4927L77.5134 42.1261C77.2669 42.2655 77.0406 42.4379 76.8409 42.6386L76.5046 42.9766C76.0003 43.4834 75.7756 44.2046 75.9027 44.9081L76.2348 46.7462C76.3853 47.5797 76.3911 48.4329 76.2516 49.2683L76.0212 50.6495ZM72.4007 60.4899L72.401 60.4898L72.4007 60.4899Z" fill="#E4508C" stroke="white" stroke-width="0.4"/>
<path d="M103.226 51.6791L103.236 51.6861L103.247 51.6918L108.801 54.5526L110.387 55.3699L111.874 56.1358C111.985 56.193 112.115 56.2038 112.234 56.1657L112.173 55.9752L112.234 56.1657C112.257 56.1583 112.272 56.1612 112.282 56.1655C112.294 56.1706 112.307 56.1811 112.317 56.1969C112.326 56.2126 112.329 56.229 112.328 56.2422C112.327 56.2533 112.323 56.2678 112.305 56.2848L111.108 57.4531L109.089 59.4245L109.084 59.4298L109.079 59.4356L106.653 62.1979L103.48 65.5766C102.642 66.469 101.723 67.2817 100.735 68.0044L99.0239 69.2558L96.2269 70.8098L92.2171 72.7548L92.217 72.7545L92.2073 72.7599L89.3994 74.32L86.0813 75.9294C85.6292 76.1487 85.1622 76.3356 84.6837 76.4887C83.5969 76.8366 82.461 77.0069 81.3199 76.9932L81.0798 76.9903C80.4547 76.9828 79.84 76.8298 79.2843 76.5436L79.2624 76.5323L78.7663 76.2768C78.7155 76.2506 78.7162 76.1776 78.7676 76.1525C78.7692 76.1517 78.7708 76.151 78.7725 76.1504C78.774 76.1498 78.7755 76.1492 78.777 76.1488L79.5024 75.9166C80.6223 75.5582 81.6771 75.0216 82.6262 74.3274L82.8302 74.1783L83.2407 73.878C84.0477 73.2878 84.8098 72.6385 85.5206 71.9354L86.51 70.9568L86.5103 70.9571L86.5191 70.9472L88.92 68.2352L88.9205 68.2346L90.2911 66.674C90.9879 65.8805 91.7471 65.1441 92.5614 64.4717L92.628 64.4167L94.5307 63.1482L94.5308 63.1483L94.5378 63.1432L96.0109 62.0658C96.1265 61.9813 96.2207 61.871 96.2863 61.7438C96.5195 61.2911 96.3415 60.7351 95.8889 60.5019L95.7373 60.4239L94.1506 59.6065L92.5639 58.7892C92.0224 58.5103 91.4488 58.2988 90.8559 58.1596L90.5934 58.0979C90.1448 57.9925 89.6892 57.9195 89.2302 57.8793L87.9699 57.7689C87.3285 57.7128 86.6834 57.7139 86.0422 57.7725C85.256 57.8443 84.48 58.0019 83.7282 58.2425L82.4344 58.6566C80.8216 59.1727 79.3026 59.9455 77.9358 60.9451L76.7518 61.8111L75.1849 62.9571C75.1732 62.9656 75.1603 62.9722 75.1465 62.9766C75.0165 63.0182 74.9143 62.8622 75.0044 62.7597L76.6354 60.9025L79.0635 58.1377L80.2114 56.8306C81.0527 55.8727 81.9962 55.0097 83.0252 54.2571C84.1128 53.4617 85.2887 52.7948 86.5296 52.2696L90.8524 50.4399C94.9187 48.7188 99.5814 49.1858 103.226 51.6791Z" fill="url(#paint6_linear_1894_38)" stroke="white" stroke-width="0.4"/>
<path d="M79.7984 56.5863L79.7882 56.5953L79.7794 56.6055L77.3703 59.3868L77.3651 59.3929L77.3603 59.3993L74.1495 63.7665L71.7507 66.536C70.4477 67.8241 68.8968 68.8345 67.192 69.506L66.4898 69.7825L65.296 70.1736L64.0967 70.5665L63.0628 70.9052L63.1251 71.0952L63.0628 70.9052C63.0072 70.9234 62.9467 70.9188 62.8946 70.8924L62.4198 70.6519L62.5606 70.6058C62.9853 70.4666 63.3699 70.2266 63.6814 69.9063L63.9335 69.647L65.2337 68.3867C66.3005 67.5913 67.049 66.4415 67.3445 65.1436L67.4578 64.6458C67.6353 63.8663 67.6774 63.0621 67.5823 62.2683L67.4784 61.4006C67.3843 60.6147 67.2128 59.84 66.9664 59.0878L66.1555 56.6125L65.5735 53.8265L65.3543 52.7769C65.1273 51.6903 65.2769 50.5589 65.7784 49.5687L67.0467 47.0646C67.5394 46.0917 68.1118 45.1611 68.7578 44.2825L69.7122 42.9843C70.555 41.838 71.5188 40.7859 72.587 39.8462L74.5722 38.0999L76.9774 35.9841C77.7703 35.2867 78.6177 34.6538 79.5115 34.0914L82.5521 32.1785L87.9466 29.4167L90.6478 28.0338L91.9983 27.3423C92.2513 27.2128 92.5222 27.4825 92.3938 27.736L92.3039 27.9134C92.2759 27.9687 92.2548 28.0272 92.2411 28.0877L91.4413 31.6007L89.8211 36.771L87.796 42.7433L85.3711 49.5023L85.1008 50.0358C83.9627 52.2829 82.4062 54.2923 80.5149 55.956L79.7984 56.5863Z" fill="#E4508C" stroke="white" stroke-width="0.4"/>
<path d="M71.553 40.5382L71.5476 40.5436L71.5426 40.5495L69.1509 43.3458L69.1422 43.356L69.1349 43.3673L66.9435 46.7621L66.6549 47.2091C66.1084 48.0557 65.709 48.9886 65.4737 49.9684L65.2998 50.692L65.2301 50.9821C65.1304 50.8212 65.0723 50.6376 65.0616 50.4479L65.0136 49.5911L65.1173 48.2857L65.1179 48.2777L65.1179 48.2696L65.1164 46.9051C65.116 46.4657 65.0447 46.0291 64.9052 45.6124L64.7284 45.0838C64.7197 45.0579 64.7153 45.0308 64.7153 45.0036L64.7141 43.8799C64.7136 43.4719 64.1662 43.3414 63.9806 43.7018L62.2521 44.018C61.9944 44.0651 61.742 44.138 61.4988 44.2356L59.3525 45.0968L59.3524 45.0967L59.3452 45.0999L57.6144 45.8752C57.0462 46.1297 56.4962 46.44 55.984 46.7935C55.4733 47.1459 54.9894 47.5487 54.5509 47.9881L53.2035 49.3384L53.1981 49.3438L53.1931 49.3497L51.9973 50.7478L51.3994 51.4469L51.1579 51.7292L51.1549 51.0601C51.1524 50.5218 51.0641 49.9873 50.8934 49.4768C50.7959 49.1856 50.7275 48.8854 50.6891 48.5808L50.5017 47.0946C50.4009 46.295 50.3991 45.4861 50.4963 44.6861L50.5769 44.0226C50.6366 43.5322 50.7332 43.0469 50.866 42.571L51.673 39.6792C51.8403 39.0795 52.0644 38.4972 52.3422 37.94L53.1397 36.3408C53.3805 35.8577 53.6609 35.3954 53.9779 34.9585L56.6781 31.2373L59.466 27.6449L62.2482 24.0597L64.2328 22.0709L66.2225 20.0769L68.8845 17.6729C68.9652 17.6 68.9901 17.4903 68.9596 17.3947L70.1386 16.1559C70.1827 16.1097 70.2305 16.0671 70.2815 16.0288L70.7778 15.6557C71.165 15.3646 71.7236 15.5385 71.8772 15.9978L72.2776 17.1947L73.0785 19.5885L73.8793 21.9823L74.855 24.899C75.0021 25.3387 75.1178 25.7884 75.2013 26.2446L75.8753 29.9293L76.1176 31.8503C76.2213 32.6729 76.2149 33.5056 76.0985 34.3265L75.9442 35.4156C75.9057 35.6869 75.8237 35.9502 75.7015 36.1955C75.5792 36.4407 75.4181 36.6647 75.2246 36.8587L73.5464 38.5405L71.553 40.5382ZM65.2129 51.0538C65.2129 51.0537 65.213 51.0536 65.213 51.0536L65.2129 51.0538ZM63.9863 43.7007L63.9862 43.7008L63.9863 43.7007ZM68.8894 17.4684L68.8896 17.4682L68.8894 17.4684Z" fill="url(#paint7_linear_1894_38)" stroke="white" stroke-width="0.4"/>
<path d="M50.5431 42.9173L50.5414 42.9248L50.5402 42.9324L50.3155 44.3982C50.1781 45.2943 50.1608 46.2048 50.2641 47.1055L50.478 48.9718L50.692 50.8386C50.7869 51.6666 50.6346 52.5041 50.2543 53.2456C50.1129 53.5214 49.999 53.8105 49.9144 54.1086L49.4152 55.8682L49.4118 55.8802L49.4099 55.8925L49.303 56.5899L49.2495 56.9386C49.2494 56.9395 49.2492 56.9401 49.2491 56.9406C49.2487 56.9418 49.2484 56.9421 49.2483 56.9421C49.2479 56.9426 49.2468 56.9437 49.2448 56.9445C49.2429 56.9453 49.2414 56.9453 49.2407 56.9452C49.2406 56.9452 49.2397 56.9452 49.2374 56.9434L48.0835 56.0493L47.463 55.5334C47.0847 55.2188 46.6841 54.932 46.2643 54.6752L44.3467 53.5021L44.3403 53.4982L44.3336 53.4948L41.1572 51.8658L38.9883 50.7535C38.3339 50.4179 37.7176 49.9985 37.1638 49.514C35.9479 48.4499 35.0322 47.0651 34.5372 45.5277L33.5945 42.6002C33.4523 42.1588 33.3417 41.7078 33.2634 41.2507L32.6318 37.5633L32.2865 32.3814L31.9889 27.917C31.9573 27.4421 31.9603 26.9656 31.9979 26.4911L32.3985 21.4356L32.399 21.4356L32.3991 21.4218L32.4297 18.4287L32.4493 16.5127C32.4501 16.4386 32.4389 16.3648 32.4161 16.2942C32.337 16.0484 32.5945 15.8296 32.8243 15.9475L33.3602 16.2223L34.9484 17.0368L35.7425 17.4441L37.3307 18.2586L39.7129 19.4803L42.8893 21.1093L44.1762 21.7693C44.8892 22.1349 45.5546 22.5866 46.1576 23.1143L47.9901 24.7177L51.1317 28.3256L53.0681 30.9633C53.3339 31.3254 53.5396 31.7279 53.6773 32.1554L53.6861 32.1828C54.0201 33.2201 53.9284 34.3476 53.4311 35.3173L52.2093 37.6996L51.9566 38.1924C51.576 38.9345 51.2879 39.7204 51.0987 40.5326L50.5431 42.9173Z" fill="url(#paint8_linear_1894_38)" stroke="white" stroke-width="0.4"/>
</g>
<path d="M57.2981 70.6053L57.2849 70.6036L57.2716 70.6035L55.9353 70.6007L55.9251 70.6007L55.915 70.6017L55.1446 70.6787C54.5105 70.7421 53.8837 70.864 53.272 71.0427C52.6798 71.2158 52.1043 71.4415 51.5524 71.7171L51.4689 71.7587L51.4689 71.7587L51.4634 71.7616L50.8289 72.1037L50.8226 72.1071L50.8165 72.1109L50.799 72.122C50.7424 72.158 50.6704 72.1593 50.6124 72.1255L50.2133 71.8925L49.9714 71.7513C49.8492 71.6799 49.7165 71.6281 49.5783 71.5978C49.4808 71.5763 49.3873 71.5398 49.3011 71.4895L47.7697 70.5955C47.3753 70.3652 46.9999 70.1038 46.6471 69.8136L46.6473 69.8134L46.6388 69.8071L46.4213 69.6467C45.9932 69.3308 45.5265 69.0709 45.0325 68.8733L44.8662 68.8068C44.5336 68.6738 44.2185 68.5005 43.928 68.291C43.6206 68.0692 43.3432 67.8086 43.1027 67.5156L40.6545 64.5329C40.0976 63.8544 39.5998 63.1294 39.1666 62.3659L39.1667 62.3659L39.1632 62.3603L38.5502 61.3579L37.8561 60.0572L37.5439 59.2365L37.5405 59.2274L37.5362 59.2188L37.1559 58.4514L36.8748 57.7427L36.3103 56.3195L36.011 55.2511L35.7245 53.935L35.6047 52.3312L35.609 50.2799L35.7634 48.9352C35.7656 48.9162 35.7717 48.8978 35.7814 48.8812C35.8248 48.8067 35.925 48.7897 35.9907 48.8456L37.555 50.1778C37.6886 50.2916 37.835 50.3894 37.9912 50.4693L39.1164 51.0445L41.7905 52.4117L44.7793 54.1565L46.87 55.377L48.5052 56.4607L50.1415 57.5452L51.91 58.8346L53.2632 60.136L54.1932 61.2534L54.9719 62.4126L55.6762 63.5955L56.2792 64.7163L56.7765 65.9027L57.1767 67.0359L57.6142 68.4494L57.8836 69.5463C57.8977 69.6036 57.9056 69.6623 57.9071 69.7214L57.9159 70.0513C57.9247 70.3869 57.6307 70.6506 57.2981 70.6053Z" fill="url(#paint9_linear_1894_38)" stroke="white" stroke-width="0.4"/>
<path d="M68.0481 74.4413L68.048 74.4415L68.0566 74.4454L69.266 74.9986C70.4899 75.5583 71.7762 75.9701 73.0977 76.225C74.3046 76.4579 75.5334 76.5585 76.7622 76.5252L77.9051 76.4941L79.6789 76.5481C79.7743 76.551 79.8695 76.5376 79.9604 76.5086L80.5406 76.3231C80.8391 76.2277 81.0627 76.5997 80.8384 76.8185L80.8286 76.828L80.8202 76.8388L80.3165 77.4862L80.0308 77.795C79.3672 78.5122 78.6358 79.1636 77.847 79.7401L76.6448 80.6182L76.6448 80.6182L75.4531 81.4892L73.3698 82.6457L71.6114 83.5162C71.1337 83.7527 70.6379 83.9534 70.1302 84.116C69.0943 84.4477 68.0117 84.6194 66.924 84.6238C66.2162 84.6267 65.5098 84.5591 64.8155 84.4218L62.6914 84.0021L60.4409 83.3341L60.441 83.3339L60.4314 83.3316C59.8328 83.1854 59.255 82.964 58.712 82.6725L58.4398 82.5265L56.9885 81.6135L55.6469 80.4911C54.7229 79.6374 53.8641 78.7157 53.0776 77.7339L52.9414 77.5639L51.9246 76.08L51.7334 75.7076C51.3634 74.9868 51.0903 74.2203 50.9213 73.428L50.7906 72.4623C50.7745 72.3436 50.769 72.2237 50.7741 72.104C50.807 71.3286 51.2795 70.64 51.9911 70.3303L53.835 69.5275C55.1717 68.9456 56.6904 68.9464 58.0265 69.5297L61.2568 70.9399L64.8697 72.8026L68.0481 74.4413Z" fill="url(#paint10_linear_1894_38)" stroke="white" stroke-width="0.4"/>
<path d="M53.0452 60.1005L53.0398 60.095L53.0341 60.09L51.2016 58.4795C51.0372 58.335 50.8556 58.2112 50.661 58.1109L50.5856 58.0719C50.097 57.82 49.7285 57.3844 49.5611 56.8608C49.3937 56.3371 49.4412 55.7685 49.6931 55.2799L49.8718 54.9333L51.092 52.5667C51.6923 51.4024 52.4331 50.3161 53.2978 49.3322L53.7862 48.7764C54.7722 47.8155 55.8816 46.9901 57.0853 46.3219L57.3433 46.1787L57.3542 46.1726L57.3643 46.1653C58.1429 45.5963 59.0081 45.1565 59.9266 44.8629L61.1975 44.4567L62.6814 44.0058L62.6814 44.0059L62.6874 44.0039L63.8905 43.5959C64.2687 43.476 64.6706 43.6967 64.7721 44.0805L64.8162 44.2473C64.8337 44.3137 64.8433 44.382 64.8446 44.4507L65.0379 44.4471L64.8446 44.4507L64.8509 44.7879C64.8546 44.9873 64.8731 45.1861 64.906 45.3828L64.9599 45.7041C65.0394 46.178 65.0764 46.6581 65.0704 47.1386L65.0611 47.8868L65.0427 49.3752L65.0243 50.8635L65.0175 51.4105C65.0095 52.0555 65.1056 52.6975 65.302 53.3119L65.5098 53.9622C65.7488 54.7098 65.9133 55.4792 66.001 56.2592C66.0917 57.0654 66.2617 57.8606 66.5087 58.6333L66.7166 59.2836L66.9792 60.1052C67.1817 60.7389 67.3212 61.3911 67.3956 62.0523L67.4434 62.4777C67.512 63.0877 67.4989 63.7042 67.4046 64.3108C67.2905 65.0443 67.059 65.7547 66.7188 66.4145L66.6372 66.5727C66.243 67.3374 65.7281 68.0334 65.1123 68.6342L64.5585 69.1744L63.1616 70.5371C63.0952 70.6019 63.024 70.6621 62.9491 70.7168C62.3513 71.1537 61.5556 71.2169 60.898 70.8779L59.7147 70.2678L58.5314 69.6577C58.1997 69.4867 57.9496 69.191 57.836 68.8355L57.4654 67.6762C57.0802 66.471 56.5769 65.3068 55.9628 64.2006L55.7117 63.7483L55.5685 63.4903C54.8818 62.2533 54.0332 61.1133 53.0452 60.1005Z" fill="url(#paint11_linear_1894_38)" stroke="white" stroke-width="0.4"/>
<path d="M88.3908 67.9798L88.3818 67.9885L88.3741 67.9982L86.2602 70.6477L84.4605 72.6955L82.7448 74.1829C82.1082 74.7348 81.3938 75.1899 80.6245 75.5335C78.9101 76.2991 76.9918 76.4809 75.1641 76.051L72.7104 75.4737L69.1608 74.3905L67.2274 73.7306C65.664 73.1969 64.142 72.549 62.6737 71.7919C62.2531 71.5751 62.3404 70.9498 62.8042 70.8564L64.8819 70.438C64.9901 70.4162 65.0958 70.3835 65.1975 70.3405L65.1196 70.1563L65.1975 70.3405L66.7326 69.6915C68.8168 68.8102 70.7177 67.547 72.3374 65.9669L73.197 65.1284C74.0136 64.3317 74.8858 63.5939 75.807 62.9207L76.8155 62.1837L78.2909 61.1054C80.4459 59.5304 82.9747 58.5451 85.6272 58.2468L86.4339 58.1561C87.8921 57.9922 89.3683 58.1155 90.7791 58.519C91.4904 58.7225 92.1798 58.9957 92.8373 59.3348L94.1976 60.0361L95.9725 60.9512C96.3679 61.155 96.3988 61.7085 96.0286 61.9551L91.7288 64.8197C91.5217 64.9576 91.328 65.1144 91.1499 65.2881L88.3908 67.9798Z" fill="url(#paint12_linear_1894_38)" stroke="white" stroke-width="0.4"/>
<path d="M76.0212 50.6493L76.0195 50.6593L76.0168 50.6691L75.8923 51.1243C75.6074 52.166 75.1589 53.1558 74.5635 54.0568L74.0203 54.8788L73.1108 56.255C72.8087 56.7122 72.6945 57.2682 72.7919 57.8074C72.8319 58.029 72.8408 58.2551 72.8182 58.4791L72.739 59.2656C72.7033 59.6193 72.6382 59.9694 72.5444 60.3124L72.5051 60.4563L73.8668 60.0219L75.2971 59.5266L75.3068 59.5233L75.3168 59.5209L78.206 58.8408L78.2059 58.8405L78.2162 58.8387L81.7291 58.204L84.3902 57.7232C84.9457 57.6229 85.4914 57.4747 86.0213 57.2804L86.5675 57.0802C87.886 56.5968 89.0825 55.8305 90.073 54.835L92.3656 52.5309L94.5424 49.6243L96.6179 46.0944L98.2624 43.2976C98.5472 42.8133 98.7898 42.3053 98.9876 41.7794L100.216 38.513L100.219 38.5052L100.222 38.4977L101.207 36.4216L101.84 35.0878C101.866 35.034 101.9 34.985 101.942 34.9427C102.028 34.8563 101.952 34.7106 101.832 34.7323L101.092 34.8661L99.3352 35.1834L98.457 35.3421L96.7006 35.6594L94.0659 36.1354L90.5531 36.77L88.7702 37.0921C88.2147 37.1925 87.669 37.3406 87.139 37.5349L84.5589 38.4809L80.4039 40.4925L77.5134 42.1259C77.2669 42.2652 77.0406 42.4377 76.8409 42.6384L76.5046 42.9764C76.0003 43.4831 75.7756 44.2043 75.9027 44.9078L76.2348 46.7459C76.3853 47.5794 76.3911 48.4326 76.2516 49.2681L76.0212 50.6493ZM72.4007 60.4896L72.401 60.4895L72.4007 60.4896Z" fill="#E4508C" stroke="white" stroke-width="0.4"/>
<path d="M103.226 51.679L103.236 51.686L103.247 51.6917L108.801 54.5524L110.387 55.3698L111.874 56.1357C111.985 56.1929 112.115 56.2037 112.234 56.1656L112.173 55.9751L112.234 56.1656C112.257 56.1582 112.272 56.1611 112.282 56.1654C112.294 56.1705 112.307 56.181 112.317 56.1967C112.326 56.2125 112.329 56.2288 112.328 56.2421C112.327 56.2532 112.323 56.2677 112.305 56.2846L111.108 57.4529L109.089 59.4243L109.084 59.4297L109.079 59.4355L106.653 62.1978L103.48 65.5765C102.642 66.4689 101.723 67.2816 100.735 68.0043L99.0239 69.2557L96.2269 70.8097L92.2171 72.7547L92.217 72.7544L92.2073 72.7598L89.3994 74.3198L86.0813 75.9293C85.6292 76.1486 85.1622 76.3355 84.6837 76.4886C83.5969 76.8364 82.461 77.0068 81.3199 76.9931L81.0798 76.9902C80.4547 76.9827 79.84 76.8297 79.2843 76.5435L79.2624 76.5322L78.7663 76.2766C78.7155 76.2505 78.7162 76.1775 78.7676 76.1524C78.7692 76.1516 78.7708 76.1509 78.7725 76.1502C78.774 76.1497 78.7755 76.1491 78.777 76.1486L79.5024 75.9165C80.6223 75.5581 81.6771 75.0215 82.6262 74.3273L82.8302 74.1781L83.2407 73.8779C84.0477 73.2877 84.8098 72.6383 85.5206 71.9352L86.51 70.9567L86.5103 70.957L86.5191 70.9471L88.92 68.2351L88.9205 68.2345L90.2911 66.6738C90.9879 65.8804 91.7471 65.144 92.5614 64.4716L92.628 64.4166L94.5307 63.1481L94.5308 63.1482L94.5378 63.1431L96.0109 62.0657C96.1265 61.9812 96.2207 61.8709 96.2863 61.7437C96.5195 61.291 96.3415 60.735 95.8889 60.5018L95.7373 60.4238L94.1506 59.6064L92.5639 58.7891C92.0224 58.5102 91.4488 58.2987 90.8559 58.1594L90.5934 58.0978C90.1448 57.9924 89.6892 57.9194 89.2302 57.8792L87.9699 57.7688C87.3285 57.7126 86.6834 57.7138 86.0422 57.7724C85.256 57.8442 84.48 58.0018 83.7282 58.2424L82.4344 58.6564C80.8216 59.1726 79.3026 59.9453 77.9358 60.945L76.7518 61.811L75.1849 62.957C75.1732 62.9655 75.1603 62.9721 75.1465 62.9765C75.0165 63.0181 74.9143 62.8621 75.0044 62.7596L76.6354 60.9023L79.0635 58.1376L80.2114 56.8304C81.0527 55.8726 81.9962 55.0096 83.0252 54.257C84.1128 53.4616 85.2887 52.7946 86.5296 52.2694L90.8524 50.4398C94.9187 48.7187 99.5814 49.1857 103.226 51.679Z" fill="url(#paint13_linear_1894_38)" stroke="white" stroke-width="0.4"/>
<path d="M79.7984 56.5867L79.7882 56.5956L79.7794 56.6059L77.3703 59.3872L77.3651 59.3933L77.3603 59.3997L74.1495 63.7669L71.7507 66.5363C70.4477 67.8245 68.8968 68.8349 67.192 69.5063L66.4898 69.7829L65.296 70.1739L64.0967 70.5669L63.0628 70.9056L63.1251 71.0956L63.0628 70.9056C63.0072 70.9238 62.9467 70.9191 62.8946 70.8927L62.4198 70.6523L62.5606 70.6061C62.9853 70.467 63.3699 70.227 63.6814 69.9067L63.9335 69.6474L65.2337 68.3871C66.3005 67.5916 67.049 66.4418 67.3445 65.144L67.4578 64.6462C67.6353 63.8667 67.6774 63.0624 67.5823 62.2687L67.4784 61.401C67.3843 60.6151 67.2128 59.8404 66.9664 59.0882L66.1555 56.6128L65.5735 53.8269L65.3543 52.7772C65.1273 51.6907 65.2769 50.5593 65.7784 49.569L67.0467 47.065C67.5394 46.0921 68.1118 45.1615 68.7578 44.2828L69.7122 42.9847C70.555 41.8384 71.5188 40.7863 72.587 39.8466L74.5722 38.1003L76.9774 35.9845C77.7703 35.287 78.6177 34.6541 79.5115 34.0918L82.5521 32.1789L87.9466 29.417L90.6478 28.0341L91.9983 27.3427C92.2513 27.2132 92.5222 27.4829 92.3938 27.7364L92.3039 27.9138C92.2759 27.9691 92.2548 28.0276 92.2411 28.088L91.4413 31.6011L89.8211 36.7713L87.796 42.7437L85.3711 49.5026L85.1008 50.0362C83.9627 52.2833 82.4062 54.2927 80.5149 55.9564L79.7984 56.5867Z" fill="#E4508C" stroke="white" stroke-width="0.4"/>
<path d="M71.553 40.5377L71.5476 40.5431L71.5426 40.549L69.1509 43.3453L69.1422 43.3555L69.1349 43.3668L66.9435 46.7616L66.6549 47.2086C66.1084 48.0552 65.709 48.9881 65.4737 49.9679L65.2998 50.6915L65.2301 50.9816C65.1304 50.8207 65.0723 50.6371 65.0616 50.4474L65.0136 49.5906L65.1173 48.2852L65.1179 48.2772L65.1179 48.2691L65.1164 46.9046C65.116 46.4652 65.0447 46.0287 64.9052 45.6119L64.7284 45.0833C64.7197 45.0574 64.7153 45.0303 64.7153 45.0031L64.7141 43.8794C64.7136 43.4714 64.1662 43.3409 63.9806 43.7013L62.2521 44.0175C61.9944 44.0646 61.742 44.1375 61.4988 44.2351L59.3525 45.0963L59.3524 45.0962L59.3452 45.0994L57.6144 45.8747C57.0462 46.1292 56.4962 46.4395 55.984 46.793C55.4733 47.1454 54.9894 47.5482 54.5509 47.9876L53.2035 49.3379L53.1981 49.3433L53.1931 49.3492L51.9973 50.7473L51.3994 51.4464L51.1579 51.7288L51.1549 51.0596C51.1524 50.5213 51.0641 49.9868 50.8934 49.4763C50.7959 49.1851 50.7275 48.885 50.6891 48.5803L50.5017 47.0941C50.4009 46.2946 50.3991 45.4856 50.4963 44.6856L50.5769 44.0222C50.6366 43.5317 50.7332 43.0464 50.866 42.5705L51.673 39.6787C51.8403 39.079 52.0644 38.4967 52.3422 37.9395L53.1397 36.3403C53.3805 35.8572 53.6609 35.3949 53.9779 34.958L56.6781 31.2368L59.466 27.6444L62.2482 24.0593L64.2328 22.0704L66.2225 20.0764L68.8845 17.6724C68.9652 17.5995 68.9901 17.4898 68.9596 17.3942L70.1386 16.1555C70.1827 16.1092 70.2305 16.0666 70.2815 16.0283L70.7778 15.6552C71.165 15.3641 71.7236 15.538 71.8772 15.9973L72.2776 17.1942L73.0785 19.588L73.8793 21.9818L74.855 24.8985C75.0021 25.3383 75.1178 25.7879 75.2013 26.2441L75.8753 29.9288L76.1176 31.8498C76.2213 32.6724 76.2149 33.5051 76.0985 34.326L75.9442 35.4151C75.9057 35.6864 75.8237 35.9498 75.7015 36.195C75.5792 36.4403 75.4181 36.6642 75.2246 36.8582L73.5464 38.54L71.553 40.5377ZM65.2129 51.0533C65.2129 51.0532 65.213 51.0532 65.213 51.0531L65.2129 51.0533ZM63.9863 43.7002L63.9862 43.7003L63.9863 43.7002ZM68.8894 17.4679L68.8896 17.4678L68.8894 17.4679Z" fill="url(#paint14_linear_1894_38)" stroke="white" stroke-width="0.4"/>
<path d="M50.5431 42.9173L50.5414 42.9248L50.5402 42.9324L50.3155 44.3982C50.1781 45.2943 50.1608 46.2048 50.2641 47.1055L50.478 48.9718L50.692 50.8386C50.7869 51.6666 50.6346 52.5041 50.2543 53.2456C50.1129 53.5214 49.999 53.8105 49.9144 54.1086L49.4152 55.8682L49.4118 55.8802L49.4099 55.8925L49.303 56.5899L49.2495 56.9386C49.2494 56.9395 49.2492 56.9401 49.2491 56.9406C49.2487 56.9418 49.2484 56.9421 49.2483 56.9421C49.2479 56.9426 49.2468 56.9437 49.2448 56.9445C49.2429 56.9453 49.2414 56.9453 49.2407 56.9452C49.2406 56.9452 49.2397 56.9452 49.2374 56.9434L48.0835 56.0493L47.463 55.5334C47.0847 55.2188 46.6841 54.932 46.2643 54.6752L44.3467 53.5021L44.3403 53.4982L44.3336 53.4948L41.1572 51.8658L38.9883 50.7535C38.3339 50.4179 37.7176 49.9985 37.1638 49.514C35.9479 48.4499 35.0322 47.0651 34.5372 45.5277L33.5945 42.6002C33.4523 42.1588 33.3417 41.7078 33.2634 41.2507L32.6318 37.5633L32.2865 32.3814L31.9889 27.917C31.9573 27.4421 31.9603 26.9656 31.9979 26.4911L32.3985 21.4356L32.399 21.4356L32.3991 21.4218L32.4297 18.4287L32.4493 16.5127C32.4501 16.4386 32.4389 16.3648 32.4161 16.2942C32.337 16.0484 32.5945 15.8296 32.8243 15.9475L33.3602 16.2223L34.9484 17.0368L35.7425 17.4441L37.3307 18.2586L39.7129 19.4803L42.8893 21.1093L44.1762 21.7693C44.8892 22.1349 45.5546 22.5866 46.1576 23.1143L47.9901 24.7177L51.1317 28.3256L53.0681 30.9633C53.3339 31.3254 53.5396 31.7279 53.6773 32.1554L53.6861 32.1828C54.0201 33.2201 53.9284 34.3476 53.4311 35.3173L52.2093 37.6996L51.9566 38.1924C51.576 38.9345 51.2879 39.7204 51.0987 40.5326L50.5431 42.9173Z" fill="url(#paint15_linear_1894_38)" stroke="white" stroke-width="0.4"/>
<defs>
<filter id="filter0_d_1894_38" x="7.11328" y="13.3129" width="107.414" height="85.4877" filterUnits="userSpaceOnUse" color-interpolation-filters="sRGB">
<feFlood flood-opacity="0" result="BackgroundImageFix"/>
<feColorMatrix in="SourceAlpha" type="matrix" values="0 0 0 0 0 0 0 0 0 0 0 0 0 0 0 0 0 0 127 0" result="hardAlpha"/>
<feOffset dx="-2" dy="2"/>
<feGaussianBlur stdDeviation="2"/>
<feComposite in2="hardAlpha" operator="out"/>
<feColorMatrix type="matrix" values="0 0 0 0 0.85098 0 0 0 0 0.85098 0 0 0 0 0.85098 0 0 0 0.56 0"/>
<feBlend mode="normal" in2="BackgroundImageFix" result="effect1_dropShadow_1894_38"/>
<feBlend mode="normal" in="SourceGraphic" in2="effect1_dropShadow_1894_38" result="shape"/>
</filter>
<linearGradient id="paint0_linear_1894_38" x1="53.9341" y1="69.5985" x2="32.3955" y2="48.5054" gradientUnits="userSpaceOnUse">
<stop stop-color="#D12874"/>
<stop offset="0.422817" stop-color="#E4508C"/>
</linearGradient>
<linearGradient id="paint1_linear_1894_38" x1="15.3962" y1="48.5338" x2="44.9342" y2="69.8526" gradientUnits="userSpaceOnUse">
<stop offset="0.386357" stop-color="#E4508C"/>
<stop offset="0.485321" stop-color="#E14A88"/>
<stop offset="0.766588" stop-color="#D12874"/>
</linearGradient>
<linearGradient id="paint2_linear_1894_38" x1="102.235" y1="86.3809" x2="65.9246" y2="83.1406" gradientUnits="userSpaceOnUse">
<stop offset="0.386357" stop-color="#E4508C"/>
<stop offset="0.485321" stop-color="#E14A88"/>
<stop offset="0.766588" stop-color="#D12874"/>
</linearGradient>
<linearGradient id="paint3_linear_1894_38" x1="52.6613" y1="72.8592" x2="77.5904" y2="82.2747" gradientUnits="userSpaceOnUse">
<stop stop-color="#D12874"/>
<stop offset="0.667624" stop-color="#E4508C"/>
</linearGradient>
<linearGradient id="paint4_linear_1894_38" x1="59.5376" y1="54.4515" x2="54.5941" y2="67.8524" gradientUnits="userSpaceOnUse">
<stop offset="0.245724" stop-color="#E4508C"/>
<stop offset="1" stop-color="#D12874"/>
</linearGradient>
<linearGradient id="paint5_linear_1894_38" x1="92.7886" y1="61.0407" x2="49.9312" y2="69.4856" gradientUnits="userSpaceOnUse">
<stop offset="0.32699" stop-color="#E4508C"/>
<stop offset="0.842611" stop-color="#D12874"/>
</linearGradient>
<linearGradient id="paint6_linear_1894_38" x1="110.589" y1="56.1272" x2="75.2006" y2="66.902" gradientUnits="userSpaceOnUse">
<stop offset="0.438443" stop-color="#E4508C"/>
<stop offset="0.672832" stop-color="#D12874"/>
</linearGradient>
<linearGradient id="paint7_linear_1894_38" x1="72.666" y1="14.7929" x2="55.346" y2="54.4663" gradientUnits="userSpaceOnUse">
<stop offset="0.512488" stop-color="#E4508C"/>
<stop offset="0.826235" stop-color="#D12874"/>
</linearGradient>
<linearGradient id="paint8_linear_1894_38" x1="33.5049" y1="17.4555" x2="54.9926" y2="65.3901" gradientUnits="userSpaceOnUse">
<stop offset="0.407054" stop-color="#E4508C"/>
<stop offset="0.698496" stop-color="#D12874"/>
</linearGradient>
<linearGradient id="paint9_linear_1894_38" x1="53.9341" y1="69.5985" x2="32.3955" y2="48.5054" gradientUnits="userSpaceOnUse">
<stop stop-color="#D12874"/>
<stop offset="0.422817" stop-color="#E4508C"/>
</linearGradient>
<linearGradient id="paint10_linear_1894_38" x1="52.6613" y1="72.8598" x2="77.5904" y2="82.2753" gradientUnits="userSpaceOnUse">
<stop stop-color="#D12874"/>
<stop offset="0.667624" stop-color="#E4508C"/>
</linearGradient>
<linearGradient id="paint11_linear_1894_38" x1="59.5376" y1="54.4519" x2="54.5941" y2="67.8528" gradientUnits="userSpaceOnUse">
<stop offset="0.245724" stop-color="#E4508C"/>
<stop offset="1" stop-color="#D12874"/>
</linearGradient>
<linearGradient id="paint12_linear_1894_38" x1="92.7886" y1="61.0411" x2="49.9312" y2="69.486" gradientUnits="userSpaceOnUse">
<stop offset="0.32699" stop-color="#E4508C"/>
<stop offset="0.842611" stop-color="#D12874"/>
</linearGradient>
<linearGradient id="paint13_linear_1894_38" x1="110.589" y1="56.127" x2="75.2006" y2="66.9019" gradientUnits="userSpaceOnUse">
<stop offset="0.438443" stop-color="#E4508C"/>
<stop offset="0.672832" stop-color="#D12874"/>
</linearGradient>
<linearGradient id="paint14_linear_1894_38" x1="72.666" y1="14.7924" x2="55.346" y2="54.4659" gradientUnits="userSpaceOnUse">
<stop offset="0.512488" stop-color="#E4508C"/>
<stop offset="0.826235" stop-color="#D12874"/>
</linearGradient>
<linearGradient id="paint15_linear_1894_38" x1="33.5049" y1="17.4555" x2="54.9926" y2="65.3901" gradientUnits="userSpaceOnUse">
<stop offset="0.407054" stop-color="#E4508C"/>
<stop offset="0.698496" stop-color="#D12874"/>
</linearGradient>
</defs>
</svg>
