<svg width="73" height="72" viewBox="0 0 73 72" fill="none" xmlns="http://www.w3.org/2000/svg">
<g filter="url(#filter0_d_1489_175)">
<path d="M37.7122 42.6745L37.6998 42.6795L37.6883 42.6861L37.0907 43.0281L37.0819 43.0331L37.0736 43.0391L36.7493 43.2713C36.4776 43.466 36.2244 43.6854 35.993 43.9266C35.769 44.1602 35.5663 44.4133 35.3874 44.683L35.3608 44.7231L35.3607 44.723L35.3574 44.7283L35.1619 45.0441L35.1581 45.0502L35.1548 45.0565L35.1511 45.0635L34.9158 45.062L34.7715 45.0611C34.6884 45.0605 34.6058 45.073 34.5267 45.098C34.4873 45.1104 34.4461 45.1166 34.4048 45.1163L33.4913 45.1104C33.2611 45.1089 33.0315 45.089 32.8045 45.0509L32.8045 45.0506L32.794 45.0494L32.6557 45.0336C32.3751 45.0016 32.0916 45.0055 31.8121 45.0453L31.7207 45.0583C31.5459 45.0832 31.3686 45.0866 31.1929 45.0684C31.0069 45.0492 30.8243 45.006 30.6494 44.9399L28.7898 44.2366C28.372 44.0786 27.9685 43.8851 27.5836 43.6582L27.5837 43.6581L27.5779 43.6549L27.0492 43.3661L26.4127 42.9682L26.0672 42.6857L26.0597 42.6796L26.0517 42.6742L25.688 42.4314L25.3836 42.1896L24.7699 41.7021L24.3674 41.3074L23.9079 40.8003L23.4483 40.1235L22.9279 39.2142L22.6726 38.6231L23.6662 38.8075C23.7625 38.8254 23.8606 38.8319 23.9584 38.8271L24.6087 38.795L26.1515 38.7189L27.9318 38.7304L29.1763 38.7385L30.1823 38.8023L31.1895 38.8662L32.3018 38.9869L33.2288 39.2176L33.9215 39.4742L34.5602 39.7885L35.1745 40.1336L35.7259 40.4757L36.2468 40.8733L36.7131 41.2735L37.268 41.7892L37.6681 42.2078C37.6844 42.2248 37.6987 42.2435 37.711 42.2635L37.7996 42.4087C37.8586 42.5053 37.817 42.6317 37.7122 42.6745Z" fill="url(#paint0_linear_1489_175)" stroke="white" stroke-width="0.4"/>
<path d="M14.9232 41.635L14.9329 41.6278L14.9417 41.6195L15.5259 41.0695L15.5261 41.0697L15.5333 41.0621L16.1684 40.3981L16.6238 39.9812L17.6099 39.2494L18.4225 38.7568L18.7755 38.5932C19.3485 38.3277 19.9546 38.1405 20.5775 38.0366L21.3536 37.9437L22.0277 37.9128C22.1122 37.9089 22.1938 37.944 22.249 38.008C22.2652 38.0267 22.2788 38.0476 22.2894 38.0699L22.469 37.9847L22.2894 38.0699L22.5317 38.5806L22.5314 38.5807L22.5365 38.5902C22.8075 39.0903 23.118 39.568 23.4649 40.0188L23.6016 40.1963L24.3793 41.2069L24.3851 41.2145L24.3917 41.2215C24.9552 41.8246 25.589 42.3747 26.2636 42.8496L26.2635 42.8497L26.27 42.8539L27.5262 43.6681L27.5365 43.6748L27.5475 43.6801L29.2929 44.53L29.305 44.5359L29.3178 44.5401L30.3808 44.8907C30.722 45.0032 31.0792 45.0594 31.4384 45.0572L32.7175 45.0493L31.7514 45.9148C31.6905 45.9693 31.6246 46.0181 31.5547 46.0605L31.0335 46.3764C30.6423 46.6136 30.2311 46.8162 29.8047 46.9819L29.4439 47.122L29.4433 47.1223L27.7758 47.7771L26.5939 48.117L25.0438 48.36L23.9601 48.4098C23.1195 48.4484 22.2772 48.4257 21.44 48.3418L21.1281 48.3106C20.1183 48.1274 19.1242 47.866 18.1548 47.529L17.718 47.3772L17.5894 47.3193C16.3708 46.7705 15.2132 46.0954 14.1356 45.305L13.2131 44.5454C13.039 44.4021 12.8792 44.2422 12.7359 44.0681L12.3755 43.6302C12.3525 43.6024 12.3347 43.5707 12.3228 43.5367C12.2822 43.4209 12.3146 43.292 12.4051 43.2091L12.5744 43.0541C12.601 43.0298 12.6294 43.0078 12.6596 42.9882L13.3584 42.5337L13.6386 42.4013C14.0905 42.1879 14.5207 41.9312 14.9232 41.635Z" fill="url(#paint1_linear_1489_175)" stroke="white" stroke-width="0.4"/>
<path d="M59.9044 36.4575L59.8928 36.4537L59.8817 36.4485L59.144 36.1033L59.1439 36.1035L59.1347 36.0986L58.3102 35.6585L57.7391 35.4009L56.5604 35.0104L55.6268 34.7967L55.2338 34.7527C54.6066 34.6825 53.9728 34.6995 53.3503 34.8034L52.5866 34.9685L51.9467 35.1586C51.8629 35.1836 51.7955 35.2462 51.7646 35.3281C51.7559 35.3512 51.7503 35.3754 51.7479 35.4L51.5494 35.3809L51.7479 35.4L51.6918 35.9821L51.6921 35.9821L51.6905 35.9925C51.604 36.5707 51.4724 37.1413 51.2968 37.699L51.2291 37.9139L50.837 39.1592L50.8342 39.1683L50.8305 39.177C50.5028 39.9526 50.0942 40.695 49.6148 41.3871L49.6149 41.3872L49.6102 41.3933L48.6999 42.6045L48.6924 42.6144L48.6838 42.6233L47.3237 44.0308L47.3141 44.0407L47.3033 44.0492L46.42 44.7419C46.1346 44.9656 45.8138 45.1398 45.4707 45.2573L44.2509 45.675L45.4703 46.2091C45.5501 46.244 45.633 46.2714 45.7179 46.2909L46.3061 46.4254C46.7581 46.5288 47.2184 46.5917 47.6815 46.6133L48.0624 46.631L48.0631 46.6311L49.8587 46.7214L51.0889 46.6638L52.6337 46.3901L53.6733 46.0812C54.4795 45.8417 55.2665 45.5417 56.0276 45.1838L56.3121 45.05C57.2029 44.5377 58.0515 43.9551 58.8498 43.3077L59.2144 43.012L59.3063 42.9226C60.2773 41.9774 61.145 40.9315 61.8948 39.8026L62.5052 38.7606C62.6233 38.5589 62.7217 38.3464 62.7991 38.1259L62.9893 37.5838C63.0022 37.5471 63.0086 37.5084 63.0083 37.4696C63.0074 37.3377 62.9298 37.2185 62.8096 37.1643L62.6045 37.0718C62.5697 37.056 62.5335 37.0432 62.4966 37.0335L61.686 36.8203L61.381 36.7838C60.8793 36.7238 60.3847 36.6145 59.9044 36.4575Z" fill="url(#paint2_linear_1489_175)" stroke="white" stroke-width="0.4"/>
<path d="M43.543 41.8118L43.543 41.8121L43.5524 41.8112L44.2346 41.7476C44.9327 41.6825 45.6205 41.5343 46.2835 41.3063C46.889 41.0979 47.4701 40.8243 48.0163 40.49L48.5164 40.1841L49.32 39.7539L49.2256 39.5775L49.32 39.7539C49.3731 39.7255 49.4209 39.6882 49.4615 39.6438L49.3137 39.509L49.4615 39.6438L49.673 39.4119C49.6866 39.397 49.6977 39.3936 49.7055 39.3926C49.7153 39.3914 49.7284 39.3933 49.7416 39.4007C49.7548 39.408 49.7634 39.4181 49.7675 39.4272C49.7708 39.4343 49.7738 39.4455 49.7683 39.4649L49.7646 39.4781L49.7627 39.4916L49.7046 39.906L49.6572 40.1133C49.5464 40.5979 49.3891 41.0708 49.1874 41.5252C49.1874 41.5252 49.1874 41.5252 49.1874 41.5252L48.8761 42.2262L48.876 42.2262L48.57 42.9158L47.9408 43.9603L47.3804 44.7989C47.2305 45.0232 47.0636 45.2363 46.8819 45.4358C46.511 45.8427 46.0794 46.1912 45.6033 46.4676C45.2935 46.6475 44.9666 46.796 44.6273 46.911L43.5751 47.2677L42.4028 47.5464L42.4028 47.5462L42.3933 47.5489C42.0963 47.6351 41.7895 47.6834 41.4803 47.6924L41.3246 47.697L40.4517 47.6625L39.5731 47.5073C38.9466 47.3645 38.3317 47.1751 37.7335 46.9406L37.6324 46.901L36.8059 46.5037L36.63 46.3898C36.2878 46.1683 35.9763 45.9026 35.7036 45.5996L35.3994 45.2048C35.3652 45.1604 35.3351 45.1131 35.3092 45.0635C35.1419 44.7416 35.1729 44.3525 35.389 44.0611L36.0063 43.229C36.4378 42.6474 37.0919 42.2716 37.8117 42.1919L39.6136 41.9923L41.7025 41.8964L43.543 41.8118Z" fill="url(#paint3_linear_1489_175)" stroke="white" stroke-width="0.4"/>
<path d="M33.1815 39.0704L33.1741 39.0683L33.1666 39.0668L31.9345 38.8182C31.8162 38.7944 31.6954 38.7851 31.5748 38.7906L31.5311 38.7926C31.2738 38.8044 31.0224 38.7136 30.8322 38.5401C30.6419 38.3665 30.5284 38.1245 30.5166 37.8673L30.5074 37.6666L30.4444 36.2962C30.4138 35.6299 30.4651 34.9624 30.597 34.3086L30.6716 33.9386C30.8628 33.2658 31.1425 32.6213 31.5033 32.0221L31.5818 31.8919L31.5882 31.8812L31.5933 31.8698C31.7906 31.4252 32.0583 31.0154 32.3861 30.656L32.8489 30.1486L33.3954 29.5666L33.3954 29.5667L33.3997 29.5619L33.8315 29.0714C33.9323 28.9622 34.104 28.959 34.2087 29.0648L34.2713 29.128C34.2907 29.1476 34.3077 29.1695 34.322 29.1932L34.4114 29.3422C34.4667 29.4343 34.5288 29.5223 34.5971 29.6054L34.7036 29.735C34.8572 29.9218 34.9938 30.122 35.1117 30.3331L35.2998 30.6696L35.6739 31.3391L36.0479 32.0085L36.1854 32.2546C36.3526 32.5538 36.5669 32.8241 36.8201 33.055L37.08 33.2921C37.3741 33.5603 37.6409 33.8569 37.8767 34.1776C38.128 34.5195 38.4125 34.8358 38.726 35.1217L38.9859 35.3588L39.3142 35.6583C39.5627 35.885 39.7883 36.1357 39.9875 36.4067L40.1182 36.5844C40.3004 36.8323 40.4488 37.1034 40.5593 37.3905C40.6931 37.7377 40.7699 38.1042 40.787 38.4758L40.7912 38.5675C40.8111 38.9998 40.7611 39.4326 40.6432 39.849L40.5347 40.2325L40.2608 41.2C40.2491 41.2415 40.2343 41.2823 40.2168 41.3219C40.0768 41.6372 39.7701 41.8474 39.4262 41.8632L38.741 41.8946L38.0558 41.9261C37.8895 41.9337 37.7269 41.875 37.6038 41.7627L37.1405 41.3401C36.6542 40.8965 36.1252 40.502 35.5613 40.1624L35.333 40.0249L35.2028 39.9465C34.571 39.5659 33.8912 39.2713 33.1815 39.0704Z" fill="url(#paint4_linear_1489_175)" stroke="white" stroke-width="0.4"/>
<path d="M50.8703 33.5776L50.8669 33.5896L50.8651 33.6019L50.6019 35.3259L50.3259 36.694L49.9438 37.7929C49.8044 38.1939 49.6066 38.5722 49.3569 38.9155C48.8004 39.6806 48.0081 40.242 47.1017 40.5133L45.8606 40.8849L44.0016 41.3118L42.9702 41.5134C42.1395 41.6757 41.298 41.7767 40.4526 41.8155C40.3006 41.8225 40.2247 41.6343 40.339 41.5339L41.1594 40.8133L41.0275 40.6631L41.1594 40.8133C41.2071 40.7715 41.2504 40.725 41.2887 40.6745L41.1293 40.5536L41.2887 40.6745L41.8076 39.9903C42.5193 39.0517 43.0493 37.9883 43.3701 36.8549L43.5386 36.2596C43.6975 35.6985 43.8959 35.1493 44.1326 34.6162L44.3937 34.0279L44.7756 33.1674C45.3267 31.9258 46.1923 30.8496 47.2867 30.045L47.6238 29.7973C48.2227 29.357 48.9021 29.0383 49.6236 28.8592C49.9873 28.7689 50.3591 28.7148 50.7334 28.6976L51.5211 28.6614L52.5489 28.6142C52.704 28.6071 52.8096 28.7692 52.7405 28.9082L51.5559 31.292C51.4962 31.4122 51.4478 31.5376 51.4112 31.6667L50.8703 33.5776Z" fill="url(#paint5_linear_1489_175)" stroke="white" stroke-width="0.4"/>
<path d="M41.0771 29.0081L41.0806 29.0176L41.0832 29.0275C41.2667 29.7317 41.3373 30.4606 41.2922 31.1869L41.2758 31.4509L41.2231 32.2992C41.2071 32.5561 41.2908 32.8092 41.4568 33.0059C41.5374 33.1015 41.6042 33.2079 41.6554 33.322L41.822 33.6936C41.8854 33.835 41.939 33.9806 41.9825 34.1293L42.3591 33.7169L42.87 33.1292L42.8767 33.1214L42.8841 33.1144L43.9998 32.0685L43.9996 32.0683L44.0077 32.0616L45.4136 30.8758L46.4188 30.0279C46.6766 29.8105 46.9151 29.5712 47.1317 29.3127L47.274 29.1429C47.7296 28.5992 48.0606 27.9623 48.2436 27.277L48.6739 25.6656L48.898 23.8204L48.9183 21.7161L48.9303 20.4623C48.9357 19.9004 48.8928 19.3392 48.802 18.7847L48.579 17.4226L48.5777 17.4143L48.577 17.406L48.4838 16.2257L48.4238 15.4674C48.4229 15.4557 48.4226 15.444 48.4228 15.4323L48.1916 15.6272L47.4887 16.2201L47.1372 16.5165L46.4342 17.1094L45.3798 17.9988L43.9739 19.1845L43.5811 19.5158C43.1497 19.8797 42.7504 20.2802 42.3879 20.7129L41.7511 21.4728L40.4166 23.432L39.5468 24.9013C39.477 25.0192 39.4236 25.1462 39.3883 25.2786L39.3249 25.5159C39.238 25.8411 39.3156 26.1883 39.5327 26.4456L40.1531 27.1813C40.4416 27.5234 40.669 27.9126 40.8252 28.332L41.0771 29.0081Z" fill="#E4508C" stroke="white" stroke-width="0.4"/>
<path d="M53.3939 22.6104L53.4063 22.6114L53.4188 22.6108L56.6339 22.462L57.5525 22.4195L58.4133 22.3796C58.4443 22.3782 58.4747 22.3725 58.5037 22.363L58.312 23.0414L57.9164 24.4405L57.9144 24.4479L57.9128 24.4555L57.5392 26.3107L57.1977 27.7561C56.9162 28.9475 56.5248 30.1102 56.0285 31.2293L55.9535 31.3984L55.108 32.8034L53.8183 34.6998L53.818 34.6997L53.8123 34.7092L52.9603 36.1249L51.8933 37.6938C51.7503 37.904 51.5926 38.1039 51.4213 38.2918C51.0323 38.7186 50.5769 39.0799 50.0729 39.3618L49.9649 39.4222C49.6969 39.572 49.3977 39.6575 49.0911 39.6717L49.0784 39.6722L48.9386 39.6787L49.1036 39.4978C49.5187 39.0423 49.8577 38.523 50.1075 37.9596L50.1603 37.8406C50.4418 37.2058 50.6757 36.551 50.8603 35.8816L50.9811 35.4431L50.9816 35.4432L50.9842 35.4302L51.3599 33.6022L51.3601 33.6015L51.5615 32.6012C51.6738 32.0437 51.8302 31.4961 52.0292 30.9635L52.551 29.9127L52.5511 29.9128L52.5546 29.9048L52.9358 29.0452C52.9718 28.964 52.9884 28.8756 52.9843 28.7869C52.9697 28.4713 52.7021 28.2274 52.3865 28.242L52.2988 28.246L51.3802 28.2886L50.4616 28.3311C50.1402 28.346 49.8218 28.4002 49.5136 28.4926L49.3806 28.5325C49.1487 28.602 48.9221 28.688 48.7026 28.7899L48.1114 29.0643C47.8052 29.2064 47.5124 29.3756 47.2363 29.5698C46.8979 29.8078 46.5865 30.0822 46.3077 30.3881L45.8362 30.9053C45.2415 31.5578 44.7558 32.3019 44.3979 33.109L44.0916 33.7999L43.7882 34.484L43.9899 33.4824L44.3642 31.6239L44.5411 30.7452C44.6694 30.1083 44.867 29.4873 45.1303 28.8933C45.4087 28.2655 45.7588 27.672 46.1736 27.1247L47.6343 25.1971C48.9884 23.4103 51.1588 22.4355 53.3939 22.6104ZM58.5023 22.1356L58.5009 22.1344L58.5023 22.1356ZM48.8392 39.7878L48.8394 39.7876C48.8393 39.7877 48.8393 39.7878 48.8392 39.7878L48.8392 39.7878ZM43.6861 34.7142C43.6861 34.7141 43.6862 34.7141 43.6862 34.7141L43.6861 34.7142Z" fill="url(#paint6_linear_1489_175)" stroke="white" stroke-width="0.4"/>
<path d="M44.1073 30.6914L44.103 30.7042L44.1004 30.7176L43.7389 32.5786L43.7374 32.5864L43.7365 32.5944L43.4247 35.3657L43.0661 37.2113C42.8184 38.1073 42.3917 38.9439 41.8117 39.6705L41.5709 39.9721L41.1401 40.4513L40.7053 40.9348L40.3306 41.3517C40.3276 41.355 40.3235 41.3569 40.3191 41.3572L40.2685 41.3599C40.3837 41.2029 40.468 41.025 40.5163 40.8354L40.562 40.6562L40.8168 39.7668C41.0959 39.1178 41.1353 38.3906 40.9277 37.715L40.8504 37.4635C40.7262 37.0592 40.5334 36.6792 40.2804 36.3402L40.0111 35.9793C39.7634 35.6474 39.4835 35.3407 39.1755 35.0638L38.1814 34.1702L37.2095 33.0794L36.8419 32.6669C36.4761 32.2563 36.2609 31.7335 36.2317 31.1844L36.1741 30.0998C36.1318 29.3048 36.1553 28.5076 36.2443 27.7165C36.3604 26.6844 36.5875 25.6678 36.9215 24.6844L37.2083 23.8398L37.4892 23.0126C37.8288 22.0127 38.2478 21.0416 38.7423 20.1085L39.2432 19.1634L40.9407 16.5478L41.7919 15.2363L42.2175 14.5806C42.2268 14.5663 42.236 14.5609 42.2435 14.5583C42.2524 14.5552 42.2643 14.5543 42.277 14.5577C42.2896 14.5611 42.2995 14.5677 42.3057 14.5749C42.3108 14.5809 42.3162 14.5902 42.3171 14.6072L42.3225 14.7095C42.3246 14.7493 42.3316 14.7887 42.3433 14.8269L42.8874 16.5976L43.4908 19.318L44.12 22.5036L44.7719 26.1384C44.8493 27.6254 44.6432 29.1137 44.1643 30.5237L44.1073 30.6914Z" fill="#E4508C" stroke="white" stroke-width="0.4"/>
<path d="M36.2994 25.648L36.2974 25.6554L36.296 25.6629L35.9461 27.5262L35.9436 27.5394L35.9429 27.5528L35.8362 29.6319L35.8221 29.9057C35.795 30.4351 35.8575 30.9653 36.0071 31.4738L36.0424 31.5938L35.8825 31.3486L35.5964 30.7449L35.5929 30.7376L35.5889 30.7307L35.2378 30.1216C35.1195 29.9165 34.9689 29.7317 34.7917 29.5745L34.577 29.3838C34.5743 29.3814 34.572 29.3785 34.5701 29.3754L34.281 28.8738C34.1339 28.6188 33.7581 28.7132 33.7283 28.9848L33.0702 29.5424C32.9623 29.6338 32.8638 29.7359 32.7762 29.847L32.0388 30.783L32.0387 30.7829L32.034 30.7893L31.4625 31.5769C31.2691 31.8434 31.1005 32.1271 30.9588 32.4243C30.8175 32.7207 30.7036 33.0293 30.6185 33.3464L30.3646 34.2917L30.3626 34.2991L30.3612 34.3066L30.1862 35.2383L30.1115 35.636L30.0693 35.5633C29.9248 35.3146 29.7415 35.0905 29.5264 34.8995C29.4128 34.7987 29.3095 34.687 29.2179 34.5659L29.0584 34.6865L29.2179 34.5659L28.8814 34.1207C28.5502 33.6826 28.2743 33.2054 28.06 32.6999C27.9286 32.3899 27.8208 32.0704 27.7375 31.7442L27.5019 30.8206C27.348 30.2174 27.2519 29.6008 27.215 28.9794L27.2117 28.923C27.1796 28.3841 27.1922 27.8436 27.2492 27.3068L27.4568 25.3518L27.7789 23.0328L28.0998 20.7229L28.4737 19.3307L28.8495 17.9314L29.4202 16.1764C29.4427 16.1071 29.4311 16.0357 29.3956 15.9793L29.5926 15.1697C29.5991 15.1429 29.6079 15.1167 29.6187 15.0914L29.4348 15.0127L29.6187 15.0914L29.7445 14.7973C29.8167 14.6287 30.0328 14.5803 30.1699 14.7021L30.6562 15.1338L31.6287 15.9972L32.6013 16.8606L33.5286 17.6839C33.8754 17.9918 34.1999 18.3239 34.4996 18.6777L35.5227 19.8853L36.1227 20.6789C36.3752 21.0128 36.5819 21.3788 36.7376 21.7673L36.9484 22.2934C36.997 22.4148 37.0258 22.5432 37.0336 22.6737C37.0413 22.8043 37.028 22.9352 36.9941 23.0615L36.6765 24.2437L36.2994 25.648Z" fill="url(#paint7_linear_1489_175)" stroke="white" stroke-width="0.4"/>
<path d="M27.5299 32.1607L27.5321 32.168L27.5349 32.1752L27.5764 32.2822C27.9041 33.1275 28.343 33.9254 28.8816 34.6547L29.0708 34.911L29.6459 35.6898C29.8896 36.0198 30.0302 36.4146 30.0499 36.8244C30.0579 36.9902 30.0822 37.1549 30.1226 37.316L30.3516 38.2301L30.3546 38.2422L30.3591 38.2538L30.4905 38.5927L30.6769 38.5204L30.4905 38.5927L30.499 38.6147L29.9123 38.5337L29.8504 38.5229C29.3656 38.4388 28.8753 38.39 28.3834 38.3766L27.5768 38.3548L27.5693 38.3546L27.5618 38.355L25.7247 38.4433L24.4703 38.5036C24.0998 38.5215 23.7247 38.4931 23.3607 38.4204C22.5613 38.261 21.8127 37.8856 21.2098 37.3381L20.2918 36.5044C19.9486 36.1926 19.6278 35.8569 19.3321 35.4997L18.3258 34.2842L16.8432 32.0627L15.7599 30.4394C15.4957 30.0435 15.2607 29.6289 15.0568 29.1989L14.0886 27.1576L14.0891 27.1574L14.0823 27.1454L13.3272 25.8007L12.8438 24.94C12.82 24.8976 12.7895 24.8593 12.7535 24.8266C12.7189 24.7952 12.7396 24.7377 12.7862 24.7355L13.0961 24.7206L14.0146 24.6764L14.4739 24.6543L15.3924 24.6102L16.7703 24.5439L18.6073 24.4555L18.7555 24.4484C19.5558 24.4099 20.3579 24.4697 21.1436 24.6265L21.7822 24.7539L24.1021 25.5548L25.6408 26.2339C25.8429 26.3231 26.0294 26.4443 26.193 26.5929L26.2039 26.6028L26.3384 26.4548L26.2039 26.6028C26.6005 26.963 26.8378 27.466 26.8636 28.0012L26.9298 29.379C26.9599 30.0054 27.0668 30.6257 27.2479 31.2261L27.5299 32.1607Z" fill="url(#paint8_linear_1489_175)" stroke="white" stroke-width="0.4"/>
</g>
<defs>
<filter id="filter0_d_1489_175" x="6.10547" y="12.3555" width="59.1016" height="42.2725" filterUnits="userSpaceOnUse" color-interpolation-filters="sRGB">
<feFlood flood-opacity="0" result="BackgroundImageFix"/>
<feColorMatrix in="SourceAlpha" type="matrix" values="0 0 0 0 0 0 0 0 0 0 0 0 0 0 0 0 0 0 127 0" result="hardAlpha"/>
<feOffset dx="-2" dy="2"/>
<feGaussianBlur stdDeviation="2"/>
<feComposite in2="hardAlpha" operator="out"/>
<feColorMatrix type="matrix" values="0 0 0 0 0.85098 0 0 0 0 0.85098 0 0 0 0 0.85098 0 0 0 0.56 0"/>
<feBlend mode="normal" in2="BackgroundImageFix" result="effect1_dropShadow_1489_175"/>
<feBlend mode="normal" in="SourceGraphic" in2="effect1_dropShadow_1489_175" result="shape"/>
</filter>
<linearGradient id="paint0_linear_1489_175" x1="35.9877" y1="43.1786" x2="20.95" y2="39.2905" gradientUnits="userSpaceOnUse">
<stop stop-color="#D12874"/>
<stop offset="0.422817" stop-color="#E4508C"/>
</linearGradient>
<linearGradient id="paint1_linear_1489_175" x1="13.6553" y1="43.9048" x2="32.3237" y2="45.8389" gradientUnits="userSpaceOnUse">
<stop offset="0.386357" stop-color="#E4508C"/>
<stop offset="0.485321" stop-color="#E14A88"/>
<stop offset="0.766588" stop-color="#D12874"/>
</linearGradient>
<linearGradient id="paint2_linear_1489_175" x1="61.8744" y1="38.2662" x2="44.825" y2="46.1459" gradientUnits="userSpaceOnUse">
<stop offset="0.386357" stop-color="#E4508C"/>
<stop offset="0.485321" stop-color="#E14A88"/>
<stop offset="0.766588" stop-color="#D12874"/>
</linearGradient>
<linearGradient id="paint3_linear_1489_175" x1="36.2602" y1="44.961" x2="49.8126" y2="42.7627" gradientUnits="userSpaceOnUse">
<stop stop-color="#D12874"/>
<stop offset="0.667624" stop-color="#E4508C"/>
</linearGradient>
<linearGradient id="paint4_linear_1489_175" x1="34.6038" y1="34.9732" x2="35.8382" y2="42.2282" gradientUnits="userSpaceOnUse">
<stop offset="0.245724" stop-color="#E4508C"/>
<stop offset="1" stop-color="#D12874"/>
</linearGradient>
<linearGradient id="paint5_linear_1489_175" x1="51.1455" y1="29.3754" x2="34.1736" y2="44.1556" gradientUnits="userSpaceOnUse">
<stop offset="0.32699" stop-color="#E4508C"/>
<stop offset="0.842611" stop-color="#D12874"/>
</linearGradient>
<linearGradient id="paint6_linear_1489_175" x1="57.8326" y1="22.609" x2="44.7951" y2="36.5113" gradientUnits="userSpaceOnUse">
<stop offset="0.438443" stop-color="#E4508C"/>
<stop offset="0.672832" stop-color="#D12874"/>
</linearGradient>
<linearGradient id="paint7_linear_1489_175" x1="30.2771" y1="13.8888" x2="32.7323" y2="36.0568" gradientUnits="userSpaceOnUse">
<stop offset="0.512488" stop-color="#E4508C"/>
<stop offset="0.826235" stop-color="#D12874"/>
</linearGradient>
<linearGradient id="paint8_linear_1489_175" x1="13.4728" y1="25.1374" x2="35.3824" y2="41.0266" gradientUnits="userSpaceOnUse">
<stop offset="0.407054" stop-color="#E4508C"/>
<stop offset="0.698496" stop-color="#D12874"/>
</linearGradient>
</defs>
</svg>
