<svg width="250" height="250" viewBox="0 0 250 250" fill="none" xmlns="http://www.w3.org/2000/svg">
<path fill-rule="evenodd" clip-rule="evenodd" d="M0 125C0 194.036 55.9644 250 125 250C194.036 250 250 194.036 250 125C250 55.9644 194.036 0 125 0C55.9644 0 0 55.9644 0 125ZM203.449 120.216C203.432 161.189 170.102 194.528 129.12 194.544H129.089C116.65 194.54 104.426 191.419 93.5695 185.497L54.1667 195.833L64.7115 157.317C58.2069 146.044 54.7843 133.258 54.7898 120.158C54.8061 79.1755 88.1501 45.8333 129.119 45.8333C149.003 45.8419 167.666 53.5826 181.699 67.6324C195.732 81.6814 203.457 100.356 203.449 120.216Z" fill="#D12874"/>
<path fill-rule="evenodd" clip-rule="evenodd" d="M72.0133 178.175L95.3955 172.041L97.6514 173.38C107.137 179.009 118.01 181.987 129.096 181.991H129.121C163.171 181.991 190.885 154.277 190.899 120.212C190.905 103.704 184.486 88.1827 172.822 76.5052C161.158 64.8276 145.646 58.3934 129.145 58.3877C95.0677 58.3877 67.3534 86.0995 67.3398 120.162C67.3351 131.835 70.6013 143.204 76.7855 153.04L78.2544 155.377L72.0133 178.175ZM164.023 136.219C165.319 136.845 166.193 137.268 166.567 137.891C167.031 138.666 167.031 142.384 165.484 146.723C163.936 151.061 156.516 155.021 152.948 155.554C149.748 156.032 145.699 156.232 141.25 154.818C138.553 153.962 135.093 152.819 130.662 150.906C113.251 143.388 101.485 126.512 99.2611 123.323C99.1053 123.1 98.9963 122.943 98.9355 122.862L98.9206 122.842C97.9377 121.531 91.352 112.744 91.352 103.65C91.352 95.095 95.5543 90.611 97.4886 88.547C97.6211 88.4056 97.743 88.2755 97.8522 88.1563C99.5545 86.2969 101.567 85.8321 102.805 85.8321C104.043 85.8321 105.282 85.8435 106.364 85.8979C106.498 85.9046 106.637 85.9037 106.78 85.9029C107.863 85.8966 109.212 85.8886 110.543 89.086C111.055 90.3164 111.804 92.1405 112.595 94.0644C114.193 97.9552 115.958 102.254 116.269 102.876C116.734 103.806 117.043 104.89 116.424 106.13C116.331 106.316 116.245 106.491 116.163 106.659C115.698 107.608 115.356 108.307 114.567 109.228C114.256 109.59 113.936 109.981 113.615 110.371C112.976 111.15 112.337 111.928 111.781 112.482C110.851 113.408 109.883 114.413 110.967 116.272C112.05 118.132 115.777 124.213 121.299 129.138C127.234 134.432 132.392 136.669 135.006 137.803C135.517 138.025 135.931 138.204 136.234 138.356C138.091 139.286 139.174 139.13 140.257 137.891C141.341 136.652 144.9 132.468 146.138 130.609C147.376 128.75 148.615 129.06 150.317 129.679C152.019 130.3 161.15 134.792 163.008 135.722C163.37 135.903 163.709 136.067 164.023 136.219Z" fill="#D12874"/>
</svg>
