<svg width="208" height="87" viewBox="0 0 208 87" fill="none" xmlns="http://www.w3.org/2000/svg">
<g filter="url(#filter0_d_389_16)">
<path d="M81.2861 55.7083C81.2861 56.9062 81.7093 57.5051 82.5557 57.5051C83.1416 57.5051 83.6234 57.414 84.001 57.2317C84.3916 57.0494 84.652 56.9583 84.7822 56.9583C85.0557 56.9583 85.1924 57.1015 85.1924 57.3879C85.1924 58.5077 84.6064 59.4713 83.4346 60.2786C82.1976 61.1249 80.9346 61.3333 79.6455 60.9036C78.7992 60.6041 78.1742 59.9596 77.7705 58.97C77.5752 58.4622 77.4775 57.9999 77.4775 57.5833C77.4775 56.9062 77.5426 56.19 77.6729 55.4348C76.4619 57.9088 74.958 59.6145 73.1611 60.552C72.445 60.9166 71.6833 61.0989 70.876 61.0989C70.0687 61.0989 69.3656 60.9361 68.7666 60.6106C68.1807 60.2721 67.6794 59.8098 67.2627 59.2239C66.4163 57.9999 66.0322 56.4635 66.1104 54.6145C66.1885 52.2968 66.8721 50.0247 68.1611 47.7981C69.346 45.7148 70.8434 44.0155 72.6533 42.7004C74.4632 41.3593 76.1559 40.6887 77.7314 40.6887C79.307 40.6887 80.5765 41.4114 81.54 42.8567C82.4385 41.4114 83.2327 40.6887 83.9229 40.6887C84.665 40.6887 85.2249 40.8254 85.6025 41.0989C86.3187 41.6197 86.5726 42.0754 86.3643 42.4661C83.096 49.1588 81.4163 53.3254 81.3252 54.9661C81.2992 55.2004 81.2861 55.4478 81.2861 55.7083ZM70.4463 55.7864C70.4463 57.3489 70.9476 58.1301 71.9502 58.1301C72.7184 58.1301 73.6624 57.4791 74.7822 56.177C76.4229 54.2629 77.8747 51.6848 79.1377 48.4426C79.5413 47.427 79.8799 46.4114 80.1533 45.3958C80.1012 44.5103 79.7301 43.8593 79.04 43.4426C78.8057 43.2994 78.4541 43.2278 77.9854 43.2278C77.5296 43.2278 76.9893 43.3971 76.3643 43.7356C75.7523 44.0741 75.1533 44.5364 74.5674 45.1223C73.9945 45.7083 73.4541 46.4049 72.9463 47.2122C72.4515 48.0064 72.0153 48.8723 71.6377 49.8098C70.8434 51.815 70.4463 53.8072 70.4463 55.7864ZM88.0635 55.3567C88.0635 54.6015 88.1156 53.8788 88.2197 53.1887C88.3369 52.4986 88.4801 51.802 88.6494 51.0989C88.8317 50.3958 89.0335 49.6926 89.2549 48.9895L91.4424 42.3098C93.1742 36.8931 94.2614 32.6614 94.7041 29.6145C94.8473 28.5208 95.3812 27.9739 96.3057 27.9739C96.8525 27.9739 97.3148 28.1171 97.6924 28.4036C98.3825 28.9635 98.7145 29.5624 98.6885 30.2004C98.6755 30.8254 98.5843 31.5286 98.415 32.3098C98.2588 33.078 98.0505 33.9179 97.79 34.8293C97.5426 35.7408 97.2562 36.6978 96.9307 37.7004C96.0583 40.2786 95.4072 42.1405 94.9775 43.2864L93.8643 46.1965C94.9971 44.4387 95.9215 43.2343 96.6377 42.5833C98.07 41.3202 99.5609 40.6887 101.11 40.6887C103.389 40.6887 104.906 41.8801 105.661 44.2629C105.909 45.0833 106.032 46.1054 106.032 47.3293C106.032 48.5533 105.85 49.7708 105.485 50.9817C105.134 52.1796 104.652 53.2994 104.04 54.3411C103.428 55.3697 102.712 56.3007 101.892 57.134C101.084 57.9674 100.231 58.677 99.333 59.2629C97.432 60.4869 95.5895 61.0989 93.8057 61.0989C92.0088 61.0989 90.596 60.552 89.5674 59.4583C88.5648 58.3645 88.0635 56.9973 88.0635 55.3567ZM93.5322 58.5598C94.7562 58.5598 95.9997 58.0129 97.2627 56.9192C99.1898 55.2525 100.485 52.8697 101.149 49.7708C101.371 48.7551 101.481 47.7004 101.481 46.6067C101.481 45.4999 101.358 44.7252 101.11 44.2825C100.863 43.8398 100.479 43.6184 99.958 43.6184C99.4502 43.6184 98.9163 43.8267 98.3564 44.2434C97.7965 44.6601 97.2106 45.2135 96.5986 45.9036C95.9867 46.5806 95.3812 47.3684 94.7822 48.2668C94.1833 49.1523 93.6429 50.0702 93.1611 51.0208C92.1064 53.1171 91.5791 54.901 91.5791 56.3723C91.5791 57.8306 92.2301 58.5598 93.5322 58.5598ZM109.138 54.0676C109.19 52.9348 109.379 51.8541 109.704 50.8254C110.03 49.7838 110.466 48.7812 111.013 47.8176C111.56 46.8411 112.198 45.9231 112.927 45.0637C113.669 44.1913 114.47 43.4296 115.329 42.7786C117.191 41.3853 119.073 40.6887 120.974 40.6887C123.2 40.6887 124.685 41.6067 125.427 43.4426C125.687 44.0676 125.811 44.8098 125.798 45.6692C125.785 46.5155 125.622 47.3033 125.31 48.0325C124.997 48.7486 124.561 49.4062 124.001 50.0051C123.454 50.5911 122.797 51.1184 122.028 51.5872C121.273 52.0559 120.446 52.453 119.548 52.7786C117.699 53.4296 115.72 53.7681 113.61 53.7942C113.558 53.9765 113.526 54.2499 113.513 54.6145C113.5 54.9791 113.539 55.3892 113.63 55.845C113.721 56.2877 113.877 56.6848 114.099 57.0364C114.567 57.8176 115.244 58.2083 116.13 58.2083C117.64 58.2083 119.112 57.7655 120.544 56.8801C121.052 56.5806 121.462 56.2747 121.774 55.9622C122.1 55.6366 122.38 55.4739 122.614 55.4739C122.849 55.4739 123.05 55.6171 123.22 55.9036C123.402 56.177 123.493 56.4895 123.493 56.8411C123.493 57.5312 123.298 58.1301 122.907 58.6379C121.267 60.2786 118.825 61.0989 115.583 61.0989C113.669 61.0989 112.132 60.526 110.974 59.3801C109.672 58.078 109.06 56.3072 109.138 54.0676ZM120.544 43.2864C119.177 43.2864 117.862 44.2239 116.599 46.0989C115.531 47.7135 114.672 49.6275 114.021 51.8411C116.195 51.6197 118.083 50.7603 119.685 49.2629C121.156 47.8567 121.892 46.509 121.892 45.22C121.892 43.9309 121.442 43.2864 120.544 43.2864ZM128.767 60.1223C128.441 59.7838 128.174 59.3541 127.966 58.8333C127.771 58.2994 127.673 57.6874 127.673 56.9973C127.673 56.2942 127.829 55.3567 128.142 54.1848C128.467 53.0129 128.877 51.6783 129.372 50.1809L131.013 45.3176C133.343 38.5468 134.691 33.3124 135.056 29.6145C135.173 28.5208 135.707 27.9739 136.657 27.9739C137.256 27.9739 137.751 28.1171 138.142 28.4036C138.897 28.9765 139.261 29.6145 139.235 30.3176C139.209 31.0208 139.086 31.8801 138.864 32.8958C138.643 33.8984 138.356 34.9986 138.005 36.1965C137.653 37.3814 137.25 38.6379 136.794 39.9661L134.099 47.8958C132.549 52.401 131.774 55.3111 131.774 56.6262C131.774 57.3293 132.061 57.6809 132.634 57.6809C133.181 57.6809 133.675 57.5637 134.118 57.3293C134.574 57.095 134.867 56.9778 134.997 56.9778C135.271 56.9778 135.407 57.1145 135.407 57.3879C135.407 58.5468 134.815 59.5168 133.63 60.2981C132.836 60.8319 132.106 61.0989 131.442 61.0989C130.791 61.0989 130.264 61.0208 129.86 60.8645C129.457 60.7083 129.092 60.4609 128.767 60.1223ZM139.938 60.1223C139.613 59.7838 139.346 59.3541 139.138 58.8333C138.942 58.2994 138.845 57.6874 138.845 56.9973C138.845 56.2942 139.001 55.3567 139.313 54.1848C139.639 53.0129 140.049 51.6783 140.544 50.1809L142.185 45.3176C144.515 38.5468 145.863 33.3124 146.228 29.6145C146.345 28.5208 146.879 27.9739 147.829 27.9739C148.428 27.9739 148.923 28.1171 149.313 28.4036C150.069 28.9765 150.433 29.6145 150.407 30.3176C150.381 31.0208 150.257 31.8801 150.036 32.8958C149.815 33.8984 149.528 34.9986 149.177 36.1965C148.825 37.3814 148.422 38.6379 147.966 39.9661L145.271 47.8958C143.721 52.401 142.946 55.3111 142.946 56.6262C142.946 57.3293 143.233 57.6809 143.806 57.6809C144.353 57.6809 144.847 57.5637 145.29 57.3293C145.746 57.095 146.039 56.9778 146.169 56.9778C146.442 56.9778 146.579 57.1145 146.579 57.3879C146.579 58.5468 145.987 59.5168 144.802 60.2981C144.007 60.8319 143.278 61.0989 142.614 61.0989C141.963 61.0989 141.436 61.0208 141.032 60.8645C140.629 60.7083 140.264 60.4609 139.938 60.1223ZM150.349 54.0676C150.401 52.9348 150.59 51.8541 150.915 50.8254C151.241 49.7838 151.677 48.7812 152.224 47.8176C152.771 46.8411 153.409 45.9231 154.138 45.0637C154.88 44.1913 155.681 43.4296 156.54 42.7786C158.402 41.3853 160.284 40.6887 162.185 40.6887C164.411 40.6887 165.896 41.6067 166.638 43.4426C166.898 44.0676 167.022 44.8098 167.009 45.6692C166.996 46.5155 166.833 47.3033 166.521 48.0325C166.208 48.7486 165.772 49.4062 165.212 50.0051C164.665 50.5911 164.007 51.1184 163.239 51.5872C162.484 52.0559 161.657 52.453 160.759 52.7786C158.91 53.4296 156.931 53.7681 154.821 53.7942C154.769 53.9765 154.737 54.2499 154.724 54.6145C154.711 54.9791 154.75 55.3892 154.841 55.845C154.932 56.2877 155.088 56.6848 155.31 57.0364C155.778 57.8176 156.455 58.2083 157.341 58.2083C158.851 58.2083 160.323 57.7655 161.755 56.8801C162.263 56.5806 162.673 56.2747 162.985 55.9622C163.311 55.6366 163.591 55.4739 163.825 55.4739C164.06 55.4739 164.261 55.6171 164.431 55.9036C164.613 56.177 164.704 56.4895 164.704 56.8411C164.704 57.5312 164.509 58.1301 164.118 58.6379C162.478 60.2786 160.036 61.0989 156.794 61.0989C154.88 61.0989 153.343 60.526 152.185 59.3801C150.882 58.078 150.271 56.3072 150.349 54.0676ZM161.755 43.2864C160.388 43.2864 159.073 44.2239 157.81 46.0989C156.742 47.7135 155.882 49.6275 155.231 51.8411C157.406 51.6197 159.294 50.7603 160.896 49.2629C162.367 47.8567 163.103 46.509 163.103 45.22C163.103 43.9309 162.653 43.2864 161.755 43.2864ZM172.419 57.759C174.606 57.0299 176.625 56.6653 178.474 56.6653C179.711 56.6653 180.668 57.0103 181.345 57.7004C181.957 58.3254 182.263 59.1718 182.263 60.2395C182.263 60.4869 182.185 60.6952 182.028 60.8645C181.872 61.0208 181.664 61.0989 181.403 61.0989C181.143 61.0989 180.869 61.0273 180.583 60.884C180.297 60.7408 179.965 60.5846 179.587 60.4153C177.126 59.3085 174.418 59.4062 171.462 60.7083C171.084 60.8775 170.759 60.9947 170.485 61.0598C170.212 61.1379 169.906 61.0989 169.567 60.9426C169.229 60.7864 168.91 60.578 168.61 60.3176C167.868 59.6666 167.608 59.0221 167.829 58.384C168.05 57.733 168.409 57.0299 168.903 56.2747C169.411 55.5064 169.991 54.7447 170.642 53.9895C171.293 53.2343 171.996 52.4921 172.751 51.7629C174.743 49.901 176.182 48.5989 177.067 47.8567C179.099 46.1249 180.336 45.0507 180.778 44.634C181.234 44.2174 181.54 43.8853 181.696 43.6379C180.55 44.1588 179.04 44.5168 177.165 44.7122C176.683 44.7642 176.286 44.7903 175.974 44.7903C174.632 44.7903 173.675 44.5494 173.103 44.0676C172.543 43.5859 172.263 42.8632 172.263 41.8997C172.263 41.5221 172.347 41.2291 172.517 41.0208C172.686 40.7994 172.881 40.6887 173.103 40.6887C173.337 40.6887 173.636 40.7603 174.001 40.9036C174.379 41.0338 174.834 41.1835 175.368 41.3528C176.761 41.7955 177.985 42.0168 179.04 42.0168C180.095 42.0168 180.83 41.9648 181.247 41.8606C181.664 41.7564 182.035 41.6458 182.36 41.5286L183.259 41.177C183.532 41.0728 183.806 41.0208 184.079 41.0208C184.353 41.0208 184.593 41.1119 184.802 41.2942C185.023 41.4635 185.225 41.6718 185.407 41.9192C185.798 42.4791 185.993 43.0129 185.993 43.5208C185.993 44.0286 185.72 44.6471 185.173 45.3762C184.626 46.0924 183.923 46.8541 183.063 47.6614C182.204 48.4556 181.254 49.276 180.212 50.1223L177.126 52.6809C174.73 54.7122 173.161 56.4049 172.419 57.759ZM172.165 58.2864C172.204 58.2603 172.217 58.2473 172.204 58.2473C172.178 58.2473 172.165 58.2603 172.165 58.2864ZM201.325 55.7083C201.325 56.9062 201.748 57.5051 202.595 57.5051C203.181 57.5051 203.662 57.414 204.04 57.2317C204.431 57.0494 204.691 56.9583 204.821 56.9583C205.095 56.9583 205.231 57.1015 205.231 57.3879C205.231 58.5077 204.646 59.4713 203.474 60.2786C202.237 61.1249 200.974 61.3333 199.685 60.9036C198.838 60.6041 198.213 59.9596 197.81 58.97C197.614 58.4622 197.517 57.9999 197.517 57.5833C197.517 56.9062 197.582 56.19 197.712 55.4348C196.501 57.9088 194.997 59.6145 193.2 60.552C192.484 60.9166 191.722 61.0989 190.915 61.0989C190.108 61.0989 189.405 60.9361 188.806 60.6106C188.22 60.2721 187.718 59.8098 187.302 59.2239C186.455 57.9999 186.071 56.4635 186.149 54.6145C186.228 52.2968 186.911 50.0247 188.2 47.7981C189.385 45.7148 190.882 44.0155 192.692 42.7004C194.502 41.3593 196.195 40.6887 197.771 40.6887C199.346 40.6887 200.616 41.4114 201.579 42.8567C202.478 41.4114 203.272 40.6887 203.962 40.6887C204.704 40.6887 205.264 40.8254 205.642 41.0989C206.358 41.6197 206.612 42.0754 206.403 42.4661C203.135 49.1588 201.455 53.3254 201.364 54.9661C201.338 55.2004 201.325 55.4478 201.325 55.7083ZM190.485 55.7864C190.485 57.3489 190.987 58.1301 191.989 58.1301C192.757 58.1301 193.701 57.4791 194.821 56.177C196.462 54.2629 197.914 51.6848 199.177 48.4426C199.58 47.427 199.919 46.4114 200.192 45.3958C200.14 44.5103 199.769 43.8593 199.079 43.4426C198.845 43.2994 198.493 43.2278 198.024 43.2278C197.569 43.2278 197.028 43.3971 196.403 43.7356C195.791 44.0741 195.192 44.5364 194.606 45.1223C194.034 45.7083 193.493 46.4049 192.985 47.2122C192.491 48.0064 192.054 48.8723 191.677 49.8098C190.882 51.815 190.485 53.8072 190.485 55.7864Z" fill="#D12874"/>
</g>
<path d="M56.7247 31.9875C57.8515 29.6749 60.4562 28.4484 62.9659 29.0133L63.5193 29.1359C63.9734 29.2365 64.3814 29.4845 64.6798 29.8414C64.8362 30.0285 64.9589 30.2413 65.0425 30.4705L65.0727 30.5532C65.3245 31.2436 65.2319 32.0127 64.8234 32.6235L64.8107 32.6425C64.6959 32.8141 64.5569 32.9683 64.398 33.1003L64.3427 33.1463C63.9931 33.4367 63.553 33.5956 63.0985 33.5956H63.0155C62.8902 33.5956 62.7655 33.5782 62.645 33.5439L62.4328 33.4834C62.0758 33.3818 61.8056 33.0892 61.7326 32.7253L61.6163 32.1456C61.5911 32.0198 61.4806 31.9293 61.3523 31.9293C61.3141 31.9293 61.2763 31.9375 61.2414 31.9532L60.181 32.4323C59.1711 32.8885 58.6413 34.01 58.9304 35.0799C59.1043 35.7235 59.5537 36.2574 60.1582 36.5386L60.6213 36.754C61.0646 36.9602 61.5476 37.0671 62.0366 37.0671H62.3632C63.9606 37.0671 65.4547 36.2776 66.3549 34.9581L66.4111 34.8756C66.98 34.0417 67.2843 33.0556 67.2843 32.0461V31.8944C67.2843 29.8637 66.168 27.9975 64.3788 27.0372L63.4591 26.5436C62.4038 25.9772 61.2247 25.6807 60.027 25.6807H58.9455C58.2837 25.6807 57.6232 25.7376 56.9711 25.8506L54.747 26.2362L52.5878 26.9304L50.5679 27.9024L49.7321 28.4579L48.757 29.291L47.5033 30.4019L47.0896 30.86C46.531 31.4787 46.0373 32.153 45.6163 32.8724C44.7481 34.3561 44.2035 36.0065 44.0181 37.7155L43.7421 40.2608V43.7322V45.8075C43.7421 47.1935 43.9478 48.5717 44.3525 49.8973C44.5951 50.692 44.908 51.4635 45.2875 52.2027L46.2495 54.0771L46.343 54.2441C47.3887 56.1116 48.7201 57.804 50.2889 59.2599C51.4002 60.2913 52.6224 61.1963 53.933 61.9584L55.3042 62.7557L58.0903 64.0055L61.2943 64.9775L63.8018 65.8106L66.5878 66.5049L71.3241 67.1992L72.7172 67.3381L74.3888 67.4769H76.8963H82.6077H87.0654L89.8515 67.3381L93.0555 67.0603L95.4236 66.7826L97.7918 66.5049L102.11 65.9495L107.404 64.9775L109.633 64.8386H111.444L113.185 65.0469C114.32 65.1827 115.388 65.6544 116.253 66.4016L117.016 67.0603L117.374 67.457C117.969 68.1158 118.48 68.8453 118.896 69.6292L119.152 70.2232C119.398 70.7964 119.563 71.4014 119.64 72.0204C119.747 72.8714 119.688 73.735 119.466 74.5635L119.245 75.3918L118.879 76.3383C118.66 76.908 118.362 77.4445 117.995 77.9324C117.807 78.1824 117.601 78.4187 117.379 78.6395L117.364 78.6551C117.132 78.8862 116.884 79.1005 116.622 79.2964L115.901 79.8353C114.792 80.7565 113.561 81.5201 112.243 82.1041L111.722 82.3347L109.911 83.029L107.822 83.7233L105.036 84.4176C103.973 84.7398 102.869 84.9036 101.76 84.9036H101.553H100.021H97.6525L97.4298 84.886C95.825 84.7598 94.2525 84.3668 92.7769 83.7233L92.0693 83.3001C91.6141 83.0278 91.1939 82.7008 90.8182 82.3263C90.0027 81.5134 89.418 80.4983 89.1241 79.385L89.0057 78.9363C88.9196 78.6105 88.861 78.278 88.8304 77.9423C88.7686 77.2651 88.8216 76.5824 88.987 75.9228L89.0157 75.8084L89.0825 75.5087C89.2215 74.8854 89.5151 74.3071 89.9364 73.8271C90.1575 73.5753 90.4108 73.3539 90.6898 73.1684L91.5232 72.6147C92.2592 72.2478 93.0592 72.0269 93.8791 71.964L94.4485 71.9204H95.2844H96.5381H97.6525L97.8402 71.9438C98.4536 72.0202 99.0495 72.2001 99.6028 72.4758L99.6241 72.4885C100.073 72.7567 100.486 73.0789 100.856 73.4478L101.003 73.5644C101.365 73.8535 101.661 74.2179 101.869 74.6324C101.937 74.7682 101.995 74.9087 102.043 75.0528L102.119 75.2797C102.206 75.5392 102.272 75.8051 102.317 76.0749C102.365 76.3596 102.389 76.6477 102.389 76.9364V77.2716C102.389 77.4068 102.379 77.5418 102.36 77.6757L102.326 77.9148C102.276 78.263 102.133 78.5914 101.913 78.8657C101.767 79.0478 101.59 79.2023 101.389 79.3221L100.996 79.5575L100.546 79.8264C100.382 79.9247 100.21 80.0098 100.032 80.0807L99.8379 80.1581C99.6818 80.2203 99.5183 80.2623 99.3515 80.2831L98.8165 80.3498C98.6075 80.3758 98.396 80.3118 98.2358 80.1749C97.8691 79.8616 97.8889 79.2852 98.2794 79.0021L98.7111 78.6891C98.93 78.5305 99.1019 78.3156 99.2087 78.0672C99.3713 77.6889 99.3713 77.2604 99.2087 76.8822L99.1368 76.7149C99.0762 76.5739 98.9989 76.4407 98.9067 76.3181L98.7333 76.0876C98.4036 75.6495 97.8872 75.3918 97.3389 75.3918C97.1773 75.3918 97.0164 75.4143 96.861 75.4585L96.3749 75.597C95.6114 75.8144 95.0171 76.415 94.8076 77.1806C94.7542 77.3758 94.7271 77.5772 94.7271 77.7795V78.7244V78.9029C94.7271 79.6024 94.9271 80.2874 95.3036 80.877C95.5667 81.2892 95.9096 81.6446 96.3121 81.9224L96.4977 82.0505C97.1638 82.5102 97.9356 82.7934 98.741 82.8737L99.4743 82.9468C100.023 83.0014 100.575 82.9966 101.123 82.9324L102.667 82.7513L104.757 82.3347L106.011 82.057L106.074 82.0333C106.774 81.7718 107.451 81.4547 108.1 81.085L108.341 80.9349C108.919 80.5752 109.424 80.1119 109.834 79.5683L109.909 79.4677C110.279 78.9766 110.552 78.4199 110.714 77.8271C110.828 77.4089 110.886 76.9772 110.886 76.5436V76.1262C110.886 75.6381 110.832 75.1516 110.723 74.6758L110.617 74.2086C110.341 73.0004 109.645 71.9295 108.652 71.1875C108.195 70.8453 107.684 70.5805 107.14 70.4038L105.904 70.002C105.141 69.754 104.357 69.5767 103.561 69.4724L102.11 69.2821L99.6028 69.1432L96.8167 69.2821L91.5232 69.5598L88.4585 69.8375L85.6724 70.1152L82.6077 70.3929L80.6575 70.5318L76.8963 70.6706H69.9311H65.3341H64.9754C62.2477 70.6706 59.5249 70.4384 56.8366 69.9764L56.0838 69.762C53.3403 68.9806 50.6687 67.9659 48.0982 66.7289L47.9212 66.6438L46.1159 65.5641C45.0003 64.8969 43.9525 64.1225 42.9872 63.252C42.007 62.3679 41.1166 61.3889 40.3293 60.3294L40.1934 60.1466C39.2189 58.8351 38.3914 57.4205 37.726 55.9282L37.0555 54.4243L37.0094 54.2863C36.392 52.4403 35.9869 50.53 35.8018 48.5923V45.733C35.8018 44.4016 35.9158 43.0727 36.1428 41.7608L36.1774 41.5607C36.3909 40.3263 36.7142 39.1134 37.1436 37.9365L37.2404 37.671C37.857 35.9809 38.7098 34.3866 39.7735 32.9357C40.4675 31.9891 41.2474 31.1086 42.1034 30.3056L42.3911 30.0357C44.4811 28.0749 46.9147 26.5163 49.5699 25.438L53.0754 24.0144L54.076 23.7651C56.0034 23.2848 57.9779 23.0186 59.9636 22.9715L61.4265 22.9368C62.3573 22.9147 63.2878 22.9911 64.2025 23.1648C65.2319 23.3602 66.2343 23.6775 67.1886 24.1099L67.2843 24.1533L68.1896 24.6045C68.8841 24.9506 69.5373 25.3738 70.1371 25.8661L70.4342 26.1101C71.2068 26.7443 71.8575 27.5137 72.3546 28.3809C72.5959 28.8017 72.7995 29.243 72.9631 29.6996L73.017 29.8502C73.2806 30.5858 73.4574 31.3496 73.544 32.1261L73.553 32.207V32.6137C73.553 33.2675 73.5065 33.9204 73.4137 34.5676C73.3213 34.9359 73.1749 35.2884 72.9791 35.6137L72.8565 35.8173L72.6824 36.095C72.3352 36.6487 71.9263 37.1611 71.4635 37.6225L70.349 38.7334L70.268 38.804C69.583 39.4015 68.812 39.8926 67.9809 40.2608L67.0057 40.5385L66.2686 40.7484C65.4613 40.9784 64.6361 41.1404 63.8018 41.2328H62.4087L61.9005 41.1867C61.2249 41.1255 60.5689 40.9268 59.9729 40.6027C59.5558 40.3759 59.1733 40.0906 58.8371 39.7554L58.3847 39.3046C58.096 39.0167 57.828 38.7087 57.5828 38.3828L57.4723 38.236C57.2347 37.9202 57.0261 37.5837 56.8489 37.2304L56.7955 37.124C56.4546 36.4443 56.2468 35.7057 56.1835 34.9479L56.1813 34.9223C56.1539 34.5939 56.1551 34.2637 56.1851 33.9355L56.187 33.9137C56.2481 33.2444 56.4303 32.5917 56.7247 31.9875Z" fill="#D12874"/>
<g filter="url(#filter1_d_389_16)">
<path d="M38.5901 31.789L38.5856 31.8015L38.5827 31.8145L38.4332 32.4866L38.4309 32.4965L38.4297 32.5066L38.3831 32.9028C38.3441 33.2348 38.3358 33.5697 38.3583 33.9032C38.3802 34.2261 38.4309 34.5464 38.5098 34.8603L38.5215 34.9069L38.5214 34.9069L38.5231 34.913L38.6249 35.2701L38.6269 35.277L38.6293 35.2837L38.6321 35.2911L38.4724 35.4641L38.3746 35.5702C38.3183 35.6312 38.2719 35.7007 38.237 35.776C38.2197 35.8135 38.1966 35.8481 38.1686 35.8785L37.5491 36.5499C37.393 36.7191 37.2237 36.8755 37.0426 37.0176L37.0425 37.0174L37.0345 37.0243L36.9297 37.116C36.7171 37.3018 36.5291 37.5141 36.3703 37.7476L36.3184 37.8239C36.2191 37.9699 36.1022 38.1033 35.9705 38.221C35.8311 38.3455 35.6761 38.4515 35.5095 38.5362L33.7374 39.4375C33.3393 39.6401 32.9245 39.8081 32.4976 39.9398L32.4976 39.9397L32.4914 39.9419L31.9218 40.1383L31.199 40.341L30.7576 40.4062L30.748 40.4077L30.7386 40.41L30.3143 40.5153L29.9304 40.5776L29.1568 40.7031L28.594 40.7349L27.9097 40.7332L27.0998 40.6173L26.0771 40.3898L25.4682 40.1805L26.2736 39.57C26.3516 39.5109 26.4225 39.4428 26.4848 39.3673L26.899 38.8648L27.8815 37.6729L29.0887 36.3644L29.9326 35.4497L30.6572 34.749L31.3826 34.0473L32.2208 33.3062L33.0156 32.7761L33.6717 32.4368L34.3341 32.1762L35.0029 31.9544L35.6271 31.7771L36.2718 31.6597L36.8817 31.5844L37.6366 31.5214L38.2155 31.5074C38.239 31.5068 38.2625 31.5088 38.2855 31.5132L38.4525 31.5454C38.5637 31.5668 38.6292 31.6828 38.5901 31.789Z" fill="url(#paint0_linear_389_16)" stroke="white" stroke-width="0.4"/>
<path d="M22.4773 47.9378L22.4785 47.9258L22.4783 47.9137L22.465 47.1115L22.4653 47.1115L22.4646 47.101L22.4013 46.1844L22.3996 45.567L22.5225 44.3451L22.7055 43.4127L22.8223 43.0415C23.0118 42.4391 23.2815 41.8649 23.6241 41.3345L24.078 40.6981L24.509 40.1788C24.563 40.1138 24.6439 40.0771 24.7284 40.0794C24.7531 40.08 24.7777 40.084 24.8014 40.0912L24.8593 39.901L24.8014 40.0912L25.3421 40.2559L25.342 40.2562L25.3524 40.2588C25.9047 40.3952 26.4669 40.4873 27.0337 40.5343L27.257 40.5529L28.5279 40.6583L28.5374 40.6591L28.547 40.659C29.3723 40.6484 30.2058 40.5502 31.0112 40.3712L31.0112 40.3714L31.0186 40.3694L32.4665 39.9888L32.4783 39.9857L32.4896 39.9812L34.2933 39.263L34.3058 39.258L34.3175 39.2514L35.2925 38.7015C35.6054 38.525 35.8875 38.2988 36.1277 38.0317L36.9831 37.0807L36.9725 38.3777C36.9718 38.4595 36.9635 38.5411 36.9478 38.6213L36.8304 39.2194C36.7423 39.6683 36.6152 40.1087 36.4506 40.5355L36.3114 40.8966L36.3111 40.8973L35.6725 42.571L35.1279 43.6737L34.2639 44.9834L33.571 45.8181C33.0336 46.4656 32.4496 47.073 31.8239 47.6356L31.5908 47.8452C30.7754 48.4684 29.9128 49.0274 29.0109 49.5172L28.6046 49.7379L28.4752 49.794C27.249 50.3255 25.9704 50.7268 24.6604 50.9913L23.4776 51.1618C23.2544 51.194 23.0287 51.2046 22.8035 51.1933L22.237 51.1649C22.201 51.1631 22.1656 51.155 22.1324 51.1409C22.0194 51.0929 21.946 50.9822 21.9457 50.8595L21.945 50.6299C21.9449 50.5939 21.9478 50.558 21.9536 50.5225L22.0881 49.6999L22.1789 49.4036C22.3254 48.9258 22.4253 48.4349 22.4773 47.9378Z" fill="url(#paint1_linear_389_16)" stroke="white" stroke-width="0.4"/>
<path d="M48.9352 11.1966L48.9246 11.2026L48.9134 11.2073L48.1614 11.5202L48.1615 11.5205L48.1516 11.524L47.2712 11.8372L46.6961 12.086L45.6137 12.6945L44.8271 13.241L44.53 13.5019C44.0558 13.9183 43.6416 14.3984 43.2992 14.9285L42.9071 15.6044L42.6168 16.2055C42.5788 16.2842 42.5798 16.3763 42.6195 16.4542C42.6307 16.4762 42.6448 16.4967 42.6614 16.515L42.5136 16.6489L42.6614 16.515L43.054 16.9484L43.0542 16.9482L43.0608 16.9563C43.4301 17.4096 43.7633 17.8911 44.0574 18.3964L44.1707 18.5912L44.8274 19.7197L44.8322 19.7278L44.8362 19.7364C45.189 20.501 45.4627 21.3029 45.6516 22.1234L45.6517 22.1233L45.6532 22.1309L45.9357 23.6195L45.938 23.6317L45.9388 23.6441L46.0636 25.5974L46.0645 25.6111L46.0635 25.6248L45.9808 26.7443C45.9541 27.1059 45.8668 27.4605 45.7227 27.7932L45.2102 28.9762L46.4261 28.4344C46.5057 28.3989 46.5817 28.356 46.6533 28.3063L47.1489 27.962C47.5296 27.6975 47.886 27.3996 48.2138 27.0717L48.4834 26.802L48.4839 26.8015L49.7597 25.5348L50.5454 24.5864L51.3833 23.26L51.8549 22.2834C52.2206 21.5261 52.5288 20.7422 52.7766 19.9385L52.8693 19.6381C53.0903 18.6345 53.2309 17.6148 53.2898 16.5888L53.3167 16.1201L53.3124 15.9919C53.2674 14.6375 53.0784 13.2918 52.7486 11.9774L52.3892 10.8244C52.3197 10.6013 52.2288 10.3855 52.1179 10.1798L51.8451 9.67411C51.8267 9.6399 51.8024 9.60913 51.7735 9.58316C51.6754 9.49508 51.535 9.47218 51.414 9.52454L51.2075 9.61386C51.1724 9.62905 51.1386 9.64713 51.1065 9.66793L50.4031 10.1236L50.1708 10.3246C49.7886 10.6551 49.3747 10.9472 48.9352 11.1966Z" fill="url(#paint2_linear_389_16)" stroke="white" stroke-width="0.4"/>
<path d="M41.8772 26.8986L41.8773 26.8988L41.883 26.8912L42.2954 26.344C42.7173 25.784 43.0709 25.1758 43.3487 24.532C43.6024 23.9441 43.7913 23.3302 43.912 22.7013L44.0225 22.1255L44.2455 21.2417L44.0516 21.1928L44.2455 21.2417C44.2602 21.1834 44.2649 21.1229 44.2593 21.063L44.0602 21.0815L44.2593 21.063L44.2303 20.7505C44.2284 20.7304 44.2334 20.7199 44.2379 20.7135C44.2437 20.7054 44.2539 20.697 44.2682 20.6922C44.2826 20.6874 44.2958 20.6879 44.3053 20.6909C44.3127 20.6932 44.323 20.6986 44.3337 20.7157L44.3409 20.7274L44.3496 20.7379L44.6169 21.0599L44.7383 21.2344C45.022 21.6427 45.2656 22.0774 45.4658 22.5325C45.4658 22.5325 45.4658 22.5325 45.4658 22.5325L45.7744 23.2346L45.7745 23.2347L46.0782 23.9253L46.4269 25.0937L46.6695 26.0727C46.7344 26.3346 46.7796 26.6015 46.8047 26.8701C46.8559 27.4183 46.8229 27.9721 46.7067 28.5102C46.6311 28.8604 46.5207 29.2021 46.3773 29.5304L45.9326 30.5485L45.3493 31.6029L45.3491 31.6027L45.3448 31.6116C45.2085 31.8892 45.0376 32.1485 44.8361 32.3832L44.7346 32.5014L44.1214 33.1235L43.4151 33.6687C42.8876 34.0357 42.3335 34.3628 41.7574 34.6472L41.66 34.6953L40.8098 35.0388L40.6071 35.0922C40.2129 35.196 39.8068 35.2474 39.3991 35.245L38.9024 35.2041C38.8466 35.1995 38.7913 35.19 38.7372 35.1756C38.3866 35.0826 38.1197 34.7977 38.0499 34.4417L37.8503 33.425C37.7108 32.7144 37.8734 31.9777 38.2992 31.3919L39.3648 29.9253L40.7004 28.3163L41.8772 26.8986Z" fill="url(#paint3_linear_389_16)" stroke="white" stroke-width="0.4"/>
<path d="M32.8733 32.7138L32.8668 32.7179L32.8606 32.7224L31.8472 33.466C31.7499 33.5374 31.6617 33.6205 31.5846 33.7134L31.5566 33.747C31.3922 33.9452 31.1557 34.0699 30.8993 34.0937C30.6429 34.1175 30.3875 34.0385 30.1894 33.874L30.0348 33.7457L28.9793 32.8695C28.466 32.4435 28.007 31.9562 27.6124 31.4184L27.3891 31.1141C27.0204 30.5197 26.7322 29.879 26.5322 29.2087L26.4888 29.0631L26.4852 29.0511L26.4802 29.0397C26.2843 28.5945 26.1616 28.1205 26.1166 27.6362L26.0531 26.9524L25.9907 26.1565L25.9908 26.1565L25.9901 26.1502L25.9183 25.5006C25.9054 25.3526 26.0187 25.2235 26.1674 25.2173L26.2562 25.2136C26.2838 25.2124 26.3115 25.2146 26.3386 25.22L26.5089 25.2542C26.6143 25.2754 26.7211 25.2887 26.8285 25.2942L26.9961 25.3026C27.2377 25.3149 27.4776 25.3487 27.7131 25.4036L28.0885 25.4912L28.8354 25.6654L29.5822 25.8396L29.8567 25.9036C30.1905 25.9815 30.5346 26.005 30.8759 25.9733L31.2261 25.9408C31.6224 25.904 32.0214 25.9064 32.4172 25.948C32.8392 25.9924 33.2646 25.995 33.6871 25.9558L34.0374 25.9233L34.4799 25.8822C34.8148 25.8511 35.1521 25.8531 35.4866 25.8883L35.706 25.9114C36.0119 25.9436 36.3123 26.0164 36.599 26.128C36.9457 26.2629 37.2684 26.4528 37.5547 26.6904L37.6253 26.749C37.9583 27.0254 38.2446 27.3537 38.4731 27.7213L38.6836 28.0598L39.2145 28.9137C39.2373 28.9503 39.2575 28.9888 39.2749 29.0283C39.4138 29.3441 39.3627 29.7124 39.1428 29.9773L38.7047 30.5051L38.2667 31.0328C38.1603 31.161 38.0074 31.2416 37.8415 31.257L37.2171 31.315C36.5617 31.3759 35.9138 31.5014 35.283 31.6896L35.0277 31.7658L34.882 31.8093C34.1752 32.0202 33.4997 32.3244 32.8733 32.7138Z" fill="url(#paint4_linear_389_16)" stroke="white" stroke-width="0.4"/>
<path d="M40.7234 15.9364L40.7299 15.947L40.7378 15.9567L41.8352 17.3121L42.6609 18.4374L43.216 19.4597C43.4187 19.8328 43.5652 20.2337 43.6509 20.6496C43.8419 21.5762 43.7234 22.5399 43.3137 23.3928L42.7528 24.5606L41.8167 26.2225L41.2712 27.1208C40.8319 27.8442 40.34 28.5343 39.7994 29.1856C39.7023 29.3026 39.512 29.232 39.5147 29.0799L39.5344 27.9882L39.3345 27.9845L39.5344 27.9882C39.5356 27.9248 39.5303 27.8614 39.5188 27.7991L39.3221 27.8356L39.5188 27.7991L39.3623 26.9548C39.1476 25.7966 38.7183 24.6887 38.0963 23.6884L37.7697 23.163C37.4617 22.6677 37.1893 22.1511 36.9545 21.6173L36.6954 21.0281L36.3163 20.1663C35.7695 18.9229 35.5566 17.5583 35.6987 16.2074L35.7424 15.7914C35.8202 15.0521 36.042 14.3352 36.3954 13.6812C36.5736 13.3515 36.7839 13.0402 37.0232 12.7518L37.5268 12.1451L38.184 11.3534C38.2831 11.234 38.4741 11.265 38.5304 11.4097L39.4952 13.8906C39.5438 14.0157 39.6039 14.1359 39.6748 14.2499L40.7234 15.9364Z" fill="url(#paint5_linear_389_16)" stroke="white" stroke-width="0.4"/>
<path d="M30.7512 20.0999L30.7606 20.1037L30.7696 20.1085C31.4138 20.4469 32.0002 20.8856 32.5068 21.408L32.691 21.5979L33.2827 22.208C33.4619 22.3927 33.7054 22.5013 33.9626 22.5111C34.0875 22.5158 34.2112 22.538 34.33 22.577L34.7169 22.7041C34.8642 22.7524 35.0079 22.8108 35.1471 22.8787L35.0958 22.3226L35.0052 21.5492L35.004 21.5391L35.0039 21.5288L34.9818 19.9997L34.9815 19.9997L34.9819 19.9892L35.0519 18.1514L35.1019 16.8372C35.1147 16.5002 35.0984 16.1628 35.0531 15.8286L35.0234 15.609C34.9282 14.9061 34.6801 14.2326 34.2967 13.6358L33.3951 12.2326L32.1817 10.8245L30.6396 9.3927L29.7207 8.53956C29.3089 8.15725 28.8651 7.81107 28.394 7.50483L27.2368 6.75257L27.2298 6.74802L27.2232 6.7429L26.2877 6.01711L25.6868 5.55083C25.6775 5.54362 25.6686 5.53598 25.66 5.52794L25.6485 5.8301L25.6136 6.74903L25.5961 7.2085L25.5611 8.12743L25.5086 9.50583L25.4387 11.3437L25.4192 11.8572C25.3977 12.4212 25.425 12.986 25.5008 13.5453L25.6339 14.5278L26.1838 16.8337L26.6844 18.4661C26.7246 18.5971 26.7826 18.722 26.8566 18.8373L26.9894 19.044C27.1714 19.3272 27.4803 19.5036 27.8167 19.5164L28.7784 19.553C29.2256 19.57 29.6665 19.664 30.0817 19.8309L30.7512 20.0999Z" fill="#E4508C" stroke="white" stroke-width="0.4"/>
<path d="M34.3141 6.68614L34.3232 6.67761L34.3311 6.66803L36.3859 4.19072L36.973 3.48292L37.5231 2.81969C37.543 2.79578 37.5593 2.76949 37.5717 2.74162L37.9442 3.34018L38.7123 4.57471L38.7164 4.58123L38.7209 4.58743L39.841 6.11283L40.6797 7.3386C41.371 8.34891 41.9671 9.42116 42.4603 10.5416L42.5349 10.7109L43.0043 12.2821L43.538 14.5126L43.5377 14.5126L43.5409 14.5233L44.0139 16.1064L44.4554 17.9517C44.5146 18.199 44.5562 18.4501 44.5798 18.7033C44.6334 19.2783 44.5939 19.8583 44.4629 20.4207L44.4349 20.5412C44.3652 20.8402 44.2269 21.1189 44.0309 21.3553L44.0228 21.365L43.9335 21.4727L43.9108 21.2289C43.8536 20.6153 43.6978 20.015 43.4495 19.451L43.3971 19.3318C43.1173 18.6963 42.7907 18.0824 42.4201 17.4953L42.1772 17.1106L42.1776 17.1104L42.1698 17.0996L41.0712 15.5911L41.0708 15.5904L40.4668 14.768C40.1303 14.3097 39.8307 13.8253 39.571 13.3195L39.1454 12.2262L39.1455 12.2261L39.142 12.2182L38.7632 11.3576C38.7274 11.2763 38.6732 11.2045 38.6048 11.1478C38.3617 10.9461 38.0011 10.9797 37.7994 11.2229L37.7433 11.2904L37.1563 11.9982L36.5692 12.706C36.3638 12.9537 36.1895 13.2256 36.0503 13.5156L35.9902 13.6409C35.8855 13.8591 35.7965 14.0845 35.724 14.3155L35.5289 14.9373C35.4278 15.2594 35.3557 15.5898 35.3133 15.9246C35.2615 16.3352 35.2547 16.7501 35.2931 17.1622L35.358 17.859C35.44 18.7381 35.6631 19.5982 36.0188 20.4062L36.3234 21.0979L36.6249 21.7829L36.0202 20.9593L34.8981 19.4312L34.3676 18.7088C33.983 18.1851 33.657 17.6208 33.3952 17.0262C33.1185 16.3976 32.9154 15.7392 32.79 15.064L32.3484 12.6862C31.9391 10.4819 32.6798 8.22089 34.3141 6.68614ZM37.4027 2.58958L37.4008 2.58976L37.4027 2.58958ZM43.9472 21.6197L43.9472 21.6194C43.9472 21.6195 43.9472 21.6196 43.9472 21.6197L43.9472 21.6197ZM36.7263 22.0133C36.7263 22.0133 36.7263 22.0133 36.7263 22.0132L36.7263 22.0133Z" fill="url(#paint6_linear_389_16)" stroke="white" stroke-width="0.4"/>
<path d="M34.0361 18.9928L34.0427 19.0047L34.0508 19.0156L35.1833 20.5359L35.1881 20.5423L35.1934 20.5483L37.0324 22.6449L38.1555 24.1527C38.6512 24.9392 38.9823 25.8179 39.129 26.736L39.1899 27.1171L39.2541 27.7583L39.3189 28.4053L39.3747 28.963C39.3752 28.9674 39.3738 28.9718 39.3711 28.9752L39.339 29.0144C39.3005 28.8236 39.2257 28.6414 39.1181 28.4781L39.0164 28.3237L38.5304 27.5363C38.2384 26.8931 37.7273 26.3743 37.088 26.0729L36.8501 25.9607C36.4675 25.7803 36.0567 25.667 35.6357 25.6258L35.1876 25.5819C34.7754 25.5415 34.3602 25.542 33.9481 25.5833L32.6181 25.7164L31.1571 25.7006L30.6047 25.6946C30.0549 25.6886 29.5234 25.4957 29.0978 25.1476L28.257 24.4599C27.6408 23.9558 27.0673 23.4017 26.5423 22.8032C25.8574 22.0224 25.2587 21.1701 24.7565 20.261L24.3251 19.4801L23.9027 18.7155C23.3921 17.7912 22.9563 16.8275 22.5993 15.8336L22.2378 14.8269L21.447 11.8107L21.0505 10.2984L20.8523 9.54219C20.8479 9.52572 20.8502 9.51522 20.8533 9.50793C20.857 9.49921 20.8644 9.48992 20.8754 9.48283C20.8865 9.47573 20.898 9.47291 20.9074 9.47317C20.9154 9.47338 20.9258 9.4757 20.939 9.48648L21.0183 9.55135C21.0492 9.57659 21.083 9.59795 21.1191 9.61495L22.7946 10.405L25.2122 11.7907L27.9911 13.4704L31.1174 15.4358C32.269 16.3798 33.2305 17.5343 33.9505 18.8378L34.0361 18.9928Z" fill="#E4508C" stroke="white" stroke-width="0.4"/>
<path d="M25.0508 21.3688L25.055 21.3752L25.0596 21.3814L26.2016 22.8946L26.2097 22.9054L26.2191 22.9149L27.6844 24.3937L27.8773 24.5885C28.2505 24.965 28.6846 25.2758 29.1613 25.5075L29.2738 25.5622L28.9849 25.5154L28.3458 25.3205L28.3381 25.3181L28.3303 25.3164L27.6435 25.1659C27.4122 25.1152 27.1742 25.1022 26.9387 25.1272L26.6531 25.1577C26.6495 25.158 26.6458 25.1578 26.6423 25.1571L26.0768 25.0331C25.7892 24.9701 25.606 25.3115 25.7867 25.5165L25.7558 26.3784C25.7507 26.5199 25.7599 26.6614 25.7831 26.801L25.9786 27.9764L25.9784 27.9764L25.98 27.9841L26.1775 28.937C26.2443 29.2595 26.3405 29.5751 26.4649 29.88C26.5888 30.184 26.7403 30.476 26.9174 30.7525L27.4454 31.5767L27.4495 31.5832L27.4541 31.5893L28.0251 32.3459L28.2689 32.6689L28.1867 32.6512C27.9055 32.5906 27.6164 32.5753 27.3304 32.6057C27.1794 32.6218 27.0272 32.6229 26.876 32.6091L26.8578 32.8082L26.876 32.6091L26.3202 32.5581C25.7734 32.5081 25.2348 32.3907 24.7167 32.2088C24.399 32.0972 24.0903 31.9618 23.793 31.8037L22.9515 31.356C22.4019 31.0636 21.8814 30.7195 21.3971 30.3284L21.3531 30.2929C20.9332 29.9537 20.5419 29.5805 20.1835 29.1769L18.8778 27.7071L17.3802 25.9074L15.8884 24.1149L15.1109 22.901L14.3294 21.681L13.4161 20.0774C13.38 20.014 13.3194 19.9745 13.2538 19.9628L12.7879 19.272C12.7725 19.2492 12.759 19.2251 12.7476 19.2L12.5656 19.283L12.7476 19.2L12.6149 18.909C12.5388 18.7421 12.6485 18.5497 12.8309 18.5303L13.4775 18.4615L14.7707 18.3238L16.0639 18.1862L17.297 18.0549C17.7581 18.0058 18.2221 17.9895 18.6856 18.0061L20.2673 18.0628L21.258 18.1536C21.6748 18.1917 22.0847 18.2853 22.4767 18.4318L23.0076 18.6302C23.1301 18.6759 23.2444 18.7412 23.3462 18.8233C23.4479 18.9055 23.5357 19.0035 23.6063 19.1136L24.2665 20.1444L25.0508 21.3688Z" fill="url(#paint7_linear_389_16)" stroke="white" stroke-width="0.4"/>
<path d="M23.9594 32.2395L23.9664 32.2428L23.9735 32.2456L24.0807 32.287C24.9263 32.6139 25.8117 32.8266 26.7135 32.9195L27.0305 32.9521L27.9935 33.0513C28.4016 33.0934 28.7881 33.2553 29.1043 33.5166C29.2323 33.6224 29.3704 33.7153 29.5167 33.7939L30.3467 34.2401L30.3577 34.246L30.3693 34.2505L30.7084 34.3815L30.7805 34.195L30.7084 34.3815L30.7304 34.3901L30.2754 34.7692L30.2258 34.8078C29.8372 35.1096 29.4709 35.4392 29.1299 35.7939L28.5706 36.3755L28.5654 36.381L28.5606 36.3868L27.389 37.8045L26.5889 38.7725C26.3526 39.0585 26.0791 39.3166 25.7803 39.5369C25.1242 40.0205 24.3426 40.3213 23.5318 40.3983L22.2973 40.5157C21.8357 40.5595 21.3715 40.5706 20.9083 40.5487L19.3321 40.4744L16.6914 40.0747L14.7617 39.7826C14.2912 39.7114 13.8264 39.6059 13.3712 39.4672L11.2101 38.8085L11.2102 38.808L11.1968 38.8049L9.69411 38.4578L8.73225 38.2357C8.68488 38.2247 8.63605 38.2215 8.58764 38.2261C8.54119 38.2305 8.51258 38.1766 8.54231 38.1406L8.73998 37.9014L9.3258 37.1925L9.6187 36.8381L10.2045 36.1293L11.0832 35.066L12.2549 33.6483L12.3494 33.5339C12.8598 32.9163 13.4441 32.3636 14.0891 31.8881L14.6132 31.5018L16.7674 30.326L18.3055 29.6455C18.5076 29.5561 18.7227 29.4999 18.9427 29.479L18.9575 29.4776L18.9386 29.2785L18.9575 29.4776C19.4909 29.4269 20.0225 29.5902 20.4355 29.9315L21.4988 30.8102C21.9822 31.2097 22.5127 31.5484 23.0786 31.8187L23.9594 32.2395Z" fill="url(#paint8_linear_389_16)" stroke="white" stroke-width="0.4"/>
</g>
<defs>
<filter id="filter0_d_389_16" x="64.9932" y="27.9739" width="142.723" height="36.5742" filterUnits="userSpaceOnUse" color-interpolation-filters="sRGB">
<feFlood flood-opacity="0" result="BackgroundImageFix"/>
<feColorMatrix in="SourceAlpha" type="matrix" values="0 0 0 0 0 0 0 0 0 0 0 0 0 0 0 0 0 0 127 0" result="hardAlpha"/>
<feOffset dy="2"/>
<feGaussianBlur stdDeviation="0.5"/>
<feComposite in2="hardAlpha" operator="out"/>
<feColorMatrix type="matrix" values="0 0 0 0 0.85098 0 0 0 0 0.85098 0 0 0 0 0.85098 0 0 0 0.87 0"/>
<feBlend mode="normal" in2="BackgroundImageFix" result="effect1_dropShadow_389_16"/>
<feBlend mode="normal" in="SourceGraphic" in2="effect1_dropShadow_389_16" result="shape"/>
</filter>
<filter id="filter1_d_389_16" x="0.32959" y="0.436584" width="53.1873" height="56.9611" filterUnits="userSpaceOnUse" color-interpolation-filters="sRGB">
<feFlood flood-opacity="0" result="BackgroundImageFix"/>
<feColorMatrix in="SourceAlpha" type="matrix" values="0 0 0 0 0 0 0 0 0 0 0 0 0 0 0 0 0 0 127 0" result="hardAlpha"/>
<feOffset dx="-4" dy="2"/>
<feGaussianBlur stdDeviation="2"/>
<feComposite in2="hardAlpha" operator="out"/>
<feColorMatrix type="matrix" values="0 0 0 0 0.85098 0 0 0 0 0.85098 0 0 0 0 0.85098 0 0 0 0.56 0"/>
<feBlend mode="normal" in2="BackgroundImageFix" result="effect1_dropShadow_389_16"/>
<feBlend mode="normal" in="SourceGraphic" in2="effect1_dropShadow_389_16" result="shape"/>
</filter>
<linearGradient id="paint0_linear_389_16" x1="37.8018" y1="33.4035" x2="24.8018" y2="41.9035" gradientUnits="userSpaceOnUse">
<stop stop-color="#D12874"/>
<stop offset="0.422817" stop-color="#E4508C"/>
</linearGradient>
<linearGradient id="paint1_linear_389_16" x1="23.3018" y1="50.4035" x2="37.3018" y2="37.9035" gradientUnits="userSpaceOnUse">
<stop offset="0.386357" stop-color="#E4508C"/>
<stop offset="0.485321" stop-color="#E14A88"/>
<stop offset="0.766588" stop-color="#D12874"/>
</linearGradient>
<linearGradient id="paint2_linear_389_16" x1="51.599" y1="10.9579" x2="45.9448" y2="28.8689" gradientUnits="userSpaceOnUse">
<stop offset="0.386357" stop-color="#E4508C"/>
<stop offset="0.485321" stop-color="#E14A88"/>
<stop offset="0.766588" stop-color="#D12874"/>
</linearGradient>
<linearGradient id="paint3_linear_389_16" x1="39.3018" y1="34.4035" x2="46.8018" y2="22.9035" gradientUnits="userSpaceOnUse">
<stop stop-color="#D12874"/>
<stop offset="0.667624" stop-color="#E4508C"/>
</linearGradient>
<linearGradient id="paint4_linear_389_16" x1="30.8018" y1="28.9035" x2="36.9968" y2="32.8759" gradientUnits="userSpaceOnUse">
<stop offset="0.245724" stop-color="#E4508C"/>
<stop offset="1" stop-color="#D12874"/>
</linearGradient>
<linearGradient id="paint5_linear_389_16" x1="37.8018" y1="12.9035" x2="37.3018" y2="35.4035" gradientUnits="userSpaceOnUse">
<stop offset="0.32699" stop-color="#E4508C"/>
<stop offset="0.842611" stop-color="#D12874"/>
</linearGradient>
<linearGradient id="paint6_linear_389_16" x1="37.3018" y1="3.4035" x2="38.8018" y2="22.4035" gradientUnits="userSpaceOnUse">
<stop offset="0.438443" stop-color="#E4508C"/>
<stop offset="0.672832" stop-color="#D12874"/>
</linearGradient>
<linearGradient id="paint7_linear_389_16" x1="12.3018" y1="17.9035" x2="30.3446" y2="31.0146" gradientUnits="userSpaceOnUse">
<stop offset="0.512488" stop-color="#E4508C"/>
<stop offset="0.826235" stop-color="#D12874"/>
</linearGradient>
<linearGradient id="paint8_linear_389_16" x1="9.30176" y1="37.9035" x2="35.8018" y2="32.4035" gradientUnits="userSpaceOnUse">
<stop offset="0.407054" stop-color="#E4508C"/>
<stop offset="0.698496" stop-color="#D12874"/>
</linearGradient>
</defs>
</svg>
